<svg width="80" height="80" viewBox="0 0 80 80" fill="none" xmlns="http://www.w3.org/2000/svg">
  <g clip-path="url(#clip0_193_4930)">
    <g>
      <mask style="mask-type:luminance" maskUnits="userSpaceOnUse" x="0" y="31" width="80" height="17">
        <g>
          <path d="M80 31.4815H0V47.8423H80V31.4815Z" fill="#FFFFFF" />
        </g>
      </mask>
      <g mask="url(#mask0_193_4930)">
        <g>
          <g>
            <path d="M10.5446 47.4553L9.94698 45.5658H4.43348L3.83566 47.4553H0.00671387L5.54179 31.8967H8.8408L14.4423 47.4553H10.5446ZM7.20245 36.3415L5.2983 42.7431H9.06228L7.20245 36.3415Z" fill="var(--vscode-inputOption-activeForeground, #1F2127)" />
            <path d="M14.8693 31.8967H18.5003V47.4553H14.8693V31.8967Z" fill="var(--vscode-inputOption-activeForeground, #1F2127)" />
            <path d="M19.4787 44.2766C19.6418 43.5086 19.9298 42.7726 20.3311 42.0982C20.6802 41.5285 21.1174 41.0184 21.6264 40.5869C22.1464 40.154 22.6977 39.7603 23.2758 39.4092C23.7331 39.1421 24.1575 38.8866 24.5488 38.6422C24.9098 38.4197 25.2539 38.1708 25.5783 37.8976C25.8586 37.6638 26.0948 37.3815 26.2758 37.064C26.4487 36.7475 26.5364 36.3913 26.5304 36.0304C26.5304 35.4081 26.3607 34.9598 26.0213 34.6857C25.6613 34.4048 25.2149 34.2593 24.7593 34.2744C24.2408 34.2587 23.7365 34.446 23.3532 34.7969C22.9769 35.1451 22.7887 35.7268 22.7887 36.5418H19.224C19.2176 35.8647 19.3417 35.1929 19.5895 34.5632C19.8271 33.9641 20.1937 33.4252 20.6631 32.985C21.163 32.5238 21.7504 32.1685 22.3901 31.9404C23.1438 31.6761 23.9381 31.5481 24.7363 31.5624C25.4212 31.5592 26.1032 31.6527 26.7622 31.8403C27.3752 32.0111 27.95 32.2978 28.4559 32.6849C28.953 33.0752 29.3512 33.5779 29.6182 34.1519C29.9198 34.8177 30.0674 35.5434 30.0499 36.2747C30.0579 36.8932 29.9134 37.5042 29.6292 38.0531C29.3571 38.5752 29.0103 39.0543 28.5998 39.4757C28.1989 39.8863 27.7576 40.2548 27.2826 40.5758C26.8098 40.8948 26.3817 41.1654 25.9983 41.3874C25.4665 41.7428 25.0274 42.0502 24.6809 42.3101C24.3836 42.5258 24.1058 42.7673 23.8508 43.032C23.66 43.2284 23.5128 43.4635 23.4189 43.7215C23.3334 43.9867 23.2922 44.2645 23.2971 44.5433H29.9394V47.4553H19.1798C19.1609 46.3881 19.2611 45.3215 19.4787 44.2766Z" fill="var(--vscode-inputOption-activeForeground, #1F2127)" />
            <path d="M30.6256 34.6291C31.246 34.6418 31.8659 34.5858 32.4742 34.4623C32.8805 34.3849 33.2632 34.2136 33.5924 33.9622C33.8565 33.7422 34.0491 33.4481 34.1458 33.1176C34.2565 32.7198 34.3086 32.308 34.3006 31.8951H37.4678V47.4553H33.815V37.1638H30.6256V34.6291Z" fill="var(--vscode-inputOption-activeForeground, #1F2127)" />
          </g>
          <g>
            <path d="M41.5763 31.8967H44.9634V47.4553H41.5763V31.8967Z" fill="#E91E63" />
            <path d="M57.4706 36.7333V47.4475H54.083V45.9353C53.9443 46.1957 53.7649 46.4318 53.5516 46.6354C53.3237 46.8551 53.0667 47.0422 52.788 47.1911C52.4888 47.3506 52.1732 47.4771 51.8469 47.5678C51.5157 47.6628 51.1729 47.7118 50.8282 47.7123C50.1009 47.7205 49.38 47.5731 48.7143 47.2788C48.0903 47.0034 47.5288 46.6025 47.0648 46.1011C46.5955 45.5857 46.2343 44.9811 46.002 44.3227C45.5002 42.8764 45.5002 41.3016 46.002 39.8548C46.2343 39.1969 46.5955 38.5922 47.0648 38.0766C47.5288 37.5754 48.0903 37.1747 48.7143 36.8989C49.3804 36.6052 50.1014 36.4578 50.8287 36.4665C51.1734 36.4673 51.5162 36.5159 51.8474 36.6108C52.1751 36.7026 52.4912 36.8332 52.7884 37C53.0682 37.1567 53.3252 37.3511 53.5521 37.5778C53.7596 37.7821 53.9385 38.0139 54.0835 38.2667V36.7333H57.4706ZM51.5371 44.8245C51.8958 44.8298 52.2517 44.7537 52.5775 44.6024C52.8791 44.4604 53.1506 44.2601 53.3751 44.0134C53.602 43.7603 53.7785 43.466 53.8954 43.1464C54.0214 42.809 54.0849 42.4512 54.0835 42.0904C54.0883 41.3879 53.8362 40.7077 53.3746 40.1787C53.1526 39.9266 52.8811 39.722 52.5771 39.5789C52.2498 39.4325 51.8949 39.3564 51.5366 39.3564C51.1778 39.3564 50.8234 39.4325 50.4961 39.5789C50.1921 39.7224 49.9206 39.9266 49.6985 40.1787C49.2369 40.7077 48.9848 41.3879 48.9901 42.0904C48.9877 42.4512 49.0517 42.809 49.1778 43.1464C49.2946 43.466 49.4711 43.7603 49.698 44.0134C49.9225 44.2601 50.1935 44.4604 50.4956 44.6024C50.8214 44.7542 51.1778 44.8298 51.5371 44.8245Z" fill="#E91E63" />
            <path d="M61.5866 47.4553H58.199V31.8967H61.5866V38.2751C61.7316 38.0222 61.9105 37.7904 62.118 37.5861C62.3473 37.3576 62.6082 37.163 62.8923 37.0083C63.191 36.8441 63.5061 36.7135 63.8334 36.6192C64.1679 36.5226 64.5146 36.4741 64.8627 36.4748C65.5905 36.4665 66.3115 36.6143 66.9771 36.9082C67.6012 37.184 68.1626 37.5848 68.6266 38.0859C69.0955 38.6016 69.4571 39.2061 69.6894 39.8645C70.1912 41.3108 70.1912 42.8856 69.6894 44.3324C69.4571 44.9903 69.0955 45.5949 68.6266 46.1103C68.1626 46.6117 67.6012 47.0126 66.9771 47.2885C66.3115 47.5823 65.5905 47.7302 64.8627 47.7215C64.5146 47.7225 64.1679 47.674 63.8334 47.5775C63.5081 47.4839 63.1924 47.3578 62.8923 47.2003C62.6091 47.0534 62.3483 46.8662 62.118 46.6446C61.9051 46.4415 61.7258 46.2049 61.5866 45.9445V47.4553ZM64.1548 44.8323C64.5068 44.8366 64.855 44.7605 65.1735 44.6102C65.4756 44.4686 65.7466 44.2684 65.9711 44.0216C66.198 43.768 66.3745 43.4742 66.4918 43.1542C66.6174 42.8168 66.6814 42.4589 66.6795 42.0987C66.6843 41.3957 66.4322 40.7154 65.9706 40.1869C65.7485 39.9343 65.477 39.7302 65.173 39.5867C64.855 39.4364 64.5068 39.3603 64.1548 39.3637C63.7927 39.3593 63.4334 39.4349 63.1037 39.5857C62.7953 39.7268 62.5204 39.9314 62.2955 40.186C61.8339 40.7145 61.5818 41.3947 61.5871 42.0977C61.5851 42.458 61.6487 42.8158 61.7747 43.1532C61.8916 43.4728 62.0681 43.7671 62.295 44.0201C62.5224 44.2694 62.7968 44.4696 63.1032 44.6092C63.4329 44.7605 63.7922 44.8371 64.1548 44.8323Z" fill="#E91E63" />
            <path d="M76.4307 41.1426C76.9029 41.2759 77.3456 41.4204 77.7592 41.576C78.1456 41.7171 78.5107 41.912 78.8438 42.154C79.1512 42.3809 79.4043 42.6727 79.5856 43.0097C79.7834 43.4097 79.8784 43.8529 79.8624 44.2989C79.8809 44.8599 79.7509 45.416 79.4857 45.9106C79.2341 46.3484 78.8763 46.7154 78.4452 46.9777C77.971 47.2638 77.4503 47.4631 76.9068 47.5663C76.2906 47.688 75.6637 47.7472 75.0358 47.7438C73.5153 47.7438 72.3163 47.4107 71.4382 46.744C70.5597 46.0769 70.2978 45.1212 70.2978 43.8761H73.4421C73.4421 44.4395 73.6006 44.8434 73.9177 45.0878C74.275 45.3448 74.7075 45.4737 75.1468 45.4543C75.4974 45.4694 75.8455 45.3889 76.1538 45.2211C76.2828 45.1416 76.387 45.0277 76.4554 44.8924C76.5233 44.7571 76.5533 44.6054 76.5412 44.4546C76.5504 44.2728 76.4908 44.0943 76.3754 43.9542C76.2304 43.8039 76.0573 43.6827 75.8663 43.5988C75.5798 43.4655 75.2835 43.354 74.9805 43.2652C74.6188 43.1537 74.1868 43.017 73.6855 42.8541C73.2428 42.7207 72.822 42.5763 72.4234 42.4206C72.0496 42.2786 71.6961 42.088 71.3718 41.8538C71.0697 41.6323 70.8234 41.3428 70.6523 41.0092C70.4617 40.6068 70.3706 40.1646 70.3866 39.7195C70.3866 38.6083 70.8108 37.7859 71.6593 37.2525C72.5083 36.7191 73.6559 36.4521 75.1022 36.4517C75.7878 36.4401 76.4709 36.5339 77.1284 36.7296C77.6549 36.8845 78.1441 37.1454 78.5674 37.4963C78.9354 37.8114 79.2268 38.2068 79.4198 38.6523C79.6123 39.1014 79.7102 39.5857 79.7078 40.0749H76.3643C76.388 39.6987 76.2649 39.3283 76.0215 39.0412C75.8809 38.9098 75.715 38.8095 75.5337 38.7465C75.3529 38.6834 75.1604 38.6589 74.9693 38.6745C74.6581 38.6669 74.3512 38.7478 74.084 38.9079C73.9618 38.9826 73.862 39.0892 73.7955 39.2163C73.7291 39.3438 73.6986 39.4868 73.7073 39.6303C73.7015 39.8068 73.765 39.9789 73.8847 40.1084C74.0341 40.2558 74.211 40.3726 74.405 40.4531C74.6823 40.5743 74.9669 40.6786 75.2574 40.7639C75.5967 40.8686 75.988 40.9947 76.4307 41.1426Z" fill="#E91E63" />
          </g>
        </g>
      </g>
    </g>
  </g>
  <defs>
    <clipPath id="clip0_193_4930">
      <rect width="80" height="80" fill="#FFFFFF" />
    </clipPath>
  </defs>
</svg>