<svg width="20" height="20" viewBox="0 0 20 20" fill="none" xmlns="http://www.w3.org/2000/svg">
<g clip-path="url(#clip0_212_4689)">
<rect width="20" height="20" rx="10" fill="white"/>
<g clip-path="url(#clip1_212_4689)">
<mask id="mask0_212_4689" style="mask-type:luminance" maskUnits="userSpaceOnUse" x="0" y="0" width="20" height="20">
<path d="M20 0H0V20H20V0Z" fill="white"/>
</mask>
<g mask="url(#mask0_212_4689)">
</g>
<g clip-path="url(#clip2_212_4689)">
<mask id="mask1_212_4689" style="mask-type:luminance" maskUnits="userSpaceOnUse" x="3" y="8" width="14" height="4">
<path d="M17 8.50925H3V11.3724H17V8.50925Z" fill="white"/>
</mask>
<g mask="url(#mask1_212_4689)">
<path d="M4.84534 11.3047L4.74077 10.974H3.7759L3.67129 11.3047H3.00122L3.96986 8.58192H4.54719L5.52745 11.3047H4.84534ZM4.26047 9.35976L3.92725 10.48H4.58594L4.26047 9.35976Z" fill="#1F2127"/>
<path d="M5.60218 8.58192H6.23759V11.3047H5.60218V8.58192Z" fill="#1F2127"/>
<path d="M6.40883 10.7484C6.43735 10.614 6.48775 10.4852 6.55799 10.3672C6.61907 10.2675 6.6956 10.1782 6.78467 10.1027C6.87566 10.0269 6.97214 9.95805 7.07331 9.89662C7.15335 9.84986 7.22761 9.80515 7.29609 9.76238C7.35926 9.72345 7.41947 9.6799 7.47625 9.63208C7.5253 9.59116 7.56664 9.54175 7.59832 9.4862C7.62857 9.43082 7.64392 9.36848 7.64287 9.30532C7.64287 9.19642 7.61317 9.11797 7.55377 9.07C7.49078 9.02084 7.41265 8.99538 7.33292 8.99802C7.24218 8.99527 7.15394 9.02806 7.08686 9.08945C7.021 9.1504 6.98807 9.25219 6.98807 9.39481H6.36424C6.36312 9.27633 6.38485 9.15876 6.42821 9.04856C6.46978 8.94372 6.53394 8.84941 6.61609 8.77238C6.70356 8.69167 6.80636 8.62949 6.91832 8.58957C7.05021 8.54332 7.18921 8.52092 7.3289 8.52341C7.44876 8.52285 7.56811 8.53923 7.68344 8.57205C7.7907 8.60194 7.8913 8.65211 7.97983 8.71986C8.06683 8.78816 8.13651 8.87613 8.18324 8.97659C8.23601 9.0931 8.26184 9.2201 8.25878 9.34807C8.26018 9.45631 8.23488 9.56323 8.18516 9.65929C8.13754 9.75065 8.07685 9.83451 8.005 9.90824C7.93485 9.98011 7.85762 10.0446 7.7745 10.1008C7.69175 10.1566 7.61684 10.2039 7.54975 10.2428C7.45668 10.305 7.37983 10.3588 7.31921 10.4043C7.26718 10.442 7.21857 10.4843 7.17394 10.5306C7.14054 10.565 7.11478 10.6061 7.09836 10.6513C7.08339 10.6977 7.07619 10.7463 7.07704 10.7951H8.23944V11.3047H6.35652C6.3532 11.1179 6.37074 10.9313 6.40883 10.7484Z" fill="#1F2127"/>
<path d="M8.35952 9.06009C8.46809 9.06231 8.57658 9.05252 8.68302 9.0309C8.75413 9.01735 8.82111 8.98739 8.87871 8.94339C8.92493 8.90489 8.95864 8.85342 8.97556 8.79557C8.99493 8.72597 9.00406 8.65389 9.00266 8.58163H9.5569V11.3047H8.91767V9.50366H8.35952V9.06009Z" fill="#1F2127"/>
<path d="M10.2759 8.58191H10.8686V11.3047H10.2759V8.58191Z" fill="#E91E63"/>
<path d="M13.0574 9.42832V11.3033H12.4646V11.0387C12.4403 11.0842 12.4089 11.1255 12.3716 11.1612C12.3317 11.1996 12.2867 11.2324 12.2379 11.2584C12.1856 11.2863 12.1303 11.3085 12.0732 11.3243C12.0153 11.341 11.9553 11.3495 11.895 11.3496C11.7677 11.3511 11.6415 11.3253 11.525 11.2738C11.4158 11.2256 11.3176 11.1554 11.2364 11.0677C11.1542 10.9775 11.091 10.8717 11.0504 10.7565C10.9626 10.5034 10.9626 10.2278 11.0504 9.97458C11.091 9.85944 11.1542 9.75362 11.2364 9.6634C11.3176 9.57569 11.4158 9.50555 11.525 9.4573C11.6416 9.4059 11.7678 9.3801 11.895 9.38161C11.9554 9.38176 12.0154 9.39026 12.0733 9.40688C12.1307 9.42294 12.186 9.4458 12.238 9.47498C12.287 9.50241 12.3319 9.53643 12.3716 9.5761C12.408 9.61185 12.4393 9.65242 12.4646 9.69667V9.42832H13.0574ZM12.019 10.8443C12.0818 10.8452 12.1441 10.8319 12.2011 10.8054C12.2539 10.7806 12.3014 10.7455 12.3407 10.7023C12.3804 10.658 12.4113 10.6065 12.4317 10.5506C12.4538 10.4916 12.4649 10.4289 12.4646 10.3658C12.4655 10.2429 12.4214 10.1238 12.3406 10.0313C12.3017 9.98714 12.2542 9.95133 12.201 9.9263C12.1437 9.90067 12.0816 9.88735 12.0189 9.88735C11.9561 9.88735 11.8941 9.90067 11.8368 9.9263C11.7836 9.95141 11.7361 9.98714 11.6973 10.0313C11.6165 10.1238 11.5724 10.2429 11.5733 10.3658C11.5729 10.4289 11.5841 10.4916 11.6061 10.5506C11.6266 10.6065 11.6575 10.658 11.6972 10.7023C11.7365 10.7455 11.7839 10.7806 11.8368 10.8054C11.8938 10.832 11.9561 10.8452 12.019 10.8443Z" fill="#E91E63"/>
<path d="M13.7777 11.3047H13.1848V8.58191H13.7777V9.69813C13.8031 9.65388 13.8344 9.61331 13.8707 9.57756C13.9108 9.53756 13.9565 9.50352 14.0062 9.47644C14.0584 9.44769 14.1136 9.42485 14.1709 9.40834C14.2294 9.39145 14.2901 9.38295 14.351 9.38307C14.4784 9.38162 14.6045 9.40748 14.721 9.45892C14.8302 9.50719 14.9285 9.57733 15.0097 9.66503C15.0917 9.75526 15.155 9.86105 15.1957 9.97628C15.2835 10.2294 15.2835 10.505 15.1957 10.7582C15.155 10.8733 15.0917 10.9791 15.0097 11.0693C14.9285 11.157 14.8302 11.2272 14.721 11.2755C14.6045 11.3269 14.4784 11.3528 14.351 11.3512C14.2901 11.3514 14.2294 11.3429 14.1709 11.326C14.1139 11.3097 14.0587 11.2876 14.0062 11.26C13.9566 11.2343 13.911 11.2016 13.8707 11.1628C13.8334 11.1272 13.802 11.0858 13.7777 11.0403V11.3047ZM14.2271 10.8456C14.2887 10.8464 14.3496 10.8331 14.4054 10.8068C14.4583 10.782 14.5057 10.747 14.545 10.7038C14.5847 10.6594 14.6156 10.608 14.6361 10.552C14.6581 10.4929 14.6693 10.4303 14.6689 10.3673C14.6698 10.2442 14.6257 10.1252 14.5449 10.0327C14.506 9.98849 14.4585 9.95277 14.4053 9.92766C14.3496 9.90135 14.2887 9.88803 14.2271 9.88863C14.1637 9.88786 14.1009 9.9011 14.0432 9.92749C13.9892 9.95218 13.9411 9.98798 13.9017 10.0325C13.821 10.125 13.7768 10.2441 13.7778 10.3671C13.7774 10.4301 13.7885 10.4927 13.8106 10.5518C13.8311 10.6077 13.8619 10.6592 13.9016 10.7035C13.9414 10.7471 13.9895 10.7822 14.0431 10.8066C14.1008 10.8331 14.1637 10.8465 14.2271 10.8456Z" fill="#E91E63"/>
<path d="M16.3754 10.1999C16.458 10.2233 16.5355 10.2486 16.6079 10.2758C16.6755 10.3005 16.7394 10.3346 16.7977 10.3769C16.8515 10.4166 16.8958 10.4677 16.9275 10.5267C16.9621 10.5967 16.9788 10.6742 16.976 10.7523C16.9792 10.8505 16.9564 10.9478 16.91 11.0343C16.866 11.111 16.8034 11.1752 16.7279 11.2211C16.645 11.2711 16.5538 11.306 16.4587 11.3241C16.3509 11.3454 16.2412 11.3557 16.1313 11.3551C15.8652 11.3551 15.6554 11.2969 15.5017 11.1802C15.348 11.0634 15.3021 10.8962 15.3021 10.6783H15.8524C15.8524 10.7769 15.8801 10.8476 15.9356 10.8903C15.9982 10.9353 16.0738 10.9579 16.1507 10.9545C16.2121 10.9571 16.273 10.943 16.3269 10.9137C16.3495 10.8998 16.3678 10.8798 16.3797 10.8562C16.3916 10.8325 16.3969 10.8059 16.3947 10.7795C16.3964 10.7477 16.3859 10.7165 16.3657 10.692C16.3404 10.6657 16.3101 10.6445 16.2766 10.6298C16.2265 10.6064 16.1746 10.5869 16.1216 10.5714C16.0583 10.5519 15.9827 10.528 15.895 10.4995C15.8175 10.4761 15.7439 10.4508 15.6741 10.4236C15.6087 10.3987 15.5469 10.3654 15.4901 10.3244C15.4372 10.2856 15.3941 10.235 15.3642 10.1766C15.3308 10.1062 15.3149 10.0288 15.3177 9.9509C15.3177 9.75644 15.3919 9.61252 15.5404 9.51917C15.689 9.42582 15.8898 9.3791 16.1429 9.37903C16.2629 9.37701 16.3824 9.39342 16.4975 9.42766C16.5896 9.45477 16.6753 9.50043 16.7493 9.56184C16.8137 9.61698 16.8647 9.68618 16.8985 9.76414C16.9322 9.84272 16.9493 9.92749 16.9489 10.0131H16.3638C16.3679 9.94726 16.3464 9.88243 16.3038 9.8322C16.2792 9.80921 16.2502 9.79164 16.2184 9.78063C16.1868 9.76958 16.1531 9.76529 16.1197 9.76802C16.0652 9.76669 16.0115 9.78085 15.9647 9.80887C15.9433 9.82194 15.9259 9.8406 15.9142 9.86283C15.9026 9.88515 15.8973 9.91018 15.8988 9.93529C15.8978 9.96618 15.9089 9.9963 15.9299 10.019C15.956 10.0447 15.987 10.0652 16.0209 10.0793C16.0694 10.1005 16.1192 10.1187 16.1701 10.1337C16.2295 10.152 16.2979 10.1741 16.3754 10.1999Z" fill="#E91E63"/>
</g>
</g>
</g>
</g>
<defs>
<clipPath id="clip0_212_4689">
<rect width="20" height="20" rx="10" fill="white"/>
</clipPath>
<clipPath id="clip1_212_4689">
<rect width="20" height="20" fill="white"/>
</clipPath>
<clipPath id="clip2_212_4689">
<rect width="14" height="14" fill="white" transform="translate(3 3)"/>
</clipPath>
</defs>
</svg>
