<svg width="80" height="80" viewBox="0 0 81.5 81.5" fill="none" xmlns="http://www.w3.org/2000/svg">
  <!-- Kimi_fw (bottom-right) -->
  <svg x="19.5" y="19.5" width="62" height="62" viewBox="0 0 62 62">
    <path d="M47.5331 0.259766H13.9125C6.37339 0.259766 0.261719 6.40215 0.261719 13.9792V47.7247C0.261719 55.3017 6.37339 61.4441 13.9125 61.4441H47.5331C55.0722 61.4441 61.1839 55.3017 61.1839 47.7247V13.9792C61.1839 6.40215 55.0722 0.259766 47.5331 0.259766Z" fill="#F7F7F8" stroke="#E4E4EB" stroke-width="0.519558"/>
    <path d="M49.099 29.7886C48.303 29.5782 47.5062 29.3705 46.7108 29.1569C42.362 27.9894 38.013 26.8206 33.664 25.652C29.5936 24.5583 25.5236 23.4648 21.4536 22.3711C19.4446 21.8317 17.4356 21.292 15.427 20.7521C15.41 20.7472 15.3938 20.74 15.3594 20.7277C15.3932 20.6733 15.421 20.622 15.4542 20.5746C17.0274 18.3388 18.9916 16.532 21.3518 15.1621C21.4294 15.1171 21.5584 15.1251 21.6524 15.15C23.3838 15.6103 25.1136 16.0773 26.844 16.5422C30.8038 17.6061 34.7632 18.6696 38.723 19.7338C38.7512 19.7414 38.7786 19.751 38.8058 19.7595C37.9502 20.6363 37.0988 21.5082 36.211 22.4172C36.5724 22.5157 36.8704 22.5977 37.169 22.6779C40.815 23.6576 44.4608 24.6385 48.1086 25.6132C48.265 25.655 48.3308 25.7307 48.374 25.8799C48.7152 27.0546 48.957 28.2477 49.0668 29.467C49.071 29.5143 49.0878 29.5603 49.0986 29.6067V29.7882L49.099 29.7886Z" fill="black"/>
    <path d="M12.1016 30.4425C12.1204 30.2646 12.1392 30.0865 12.1608 29.8833C17.992 31.4499 23.8126 33.014 29.6286 34.5764C29.3872 35.6168 29.149 36.6431 28.9062 37.6899C34.4866 39.1894 40.0344 40.6803 45.604 42.1772C45.5038 42.3125 45.4172 42.4341 45.326 42.5522C44.5914 43.5074 43.7766 44.387 42.874 45.184C42.8022 45.2475 42.7436 45.2801 42.637 45.2515C37.5228 43.8728 32.4074 42.4982 27.2922 41.1237C22.9144 39.9472 18.5364 38.7707 14.1582 37.5943C13.8562 37.5128 13.5526 37.4379 13.2542 37.3446C13.1838 37.3225 13.0992 37.2505 13.076 37.1828C12.5358 35.5959 12.2208 33.9643 12.1326 32.2887C12.129 32.2174 12.112 32.147 12.1016 32.0759C12.1016 31.5315 12.1016 30.9872 12.1016 30.4429V30.4425Z" fill="black"/>
    <path d="M29.8404 49.8226C29.4574 49.7881 29.074 49.7579 28.6914 49.7187C26.4352 49.488 24.2908 48.8657 22.2734 47.8271C18.468 45.8679 15.65 42.9416 13.8172 39.0598C13.7894 39.0013 13.7648 38.9414 13.7266 38.8548C14.1794 38.9762 14.6072 39.0914 15.0354 39.2064C19.4306 40.3869 23.8258 41.5684 28.2224 42.7434C28.389 42.7881 28.4302 42.8556 28.433 43.0238C28.4486 43.9485 28.4822 44.8729 28.5052 45.7975C28.5082 45.9129 28.5472 45.9607 28.6632 45.9919C31.5268 46.7573 34.3884 47.5278 37.2508 48.2974C37.3838 48.3334 37.5164 48.371 37.6566 48.4429C37.3004 48.575 36.9466 48.7155 36.5872 48.8373C34.9766 49.3838 33.324 49.7109 31.6246 49.7939C31.5716 49.7965 31.5194 49.8124 31.4668 49.8222H29.8408L29.8404 49.8226Z" fill="black"/>
    <path d="M31.468 12.662C31.7002 12.6842 31.9326 12.7089 32.1652 12.7278C34.837 12.9459 37.3428 13.7137 39.6802 15.0277C41.9324 16.2938 43.8362 17.966 45.4 20.0283C45.422 20.057 45.4438 20.086 45.4644 20.1157C45.4708 20.1252 45.4738 20.1374 45.491 20.1788C38.0762 18.1871 30.6814 16.2009 23.2344 14.2003C23.4706 14.102 23.661 14.0182 23.8548 13.9427C25.5356 13.2874 27.2712 12.8681 29.0716 12.7292C29.3046 12.7111 29.537 12.6846 29.7696 12.662C30.3358 12.662 30.9018 12.662 31.468 12.662Z" fill="black"/>
    <path d="M48.8779 34.4385C48.6579 35.7054 48.3189 36.9155 47.8477 38.0996C35.9937 34.9149 24.1497 31.7332 12.2695 28.5416C12.3949 27.9404 12.5019 27.3475 12.6435 26.7623C13.0425 25.1153 13.6687 23.5577 14.4985 22.0819C14.5719 21.9517 14.6327 21.9091 14.7891 21.9517C18.4457 22.9404 22.1041 23.9231 25.7623 24.9058C28.1023 25.5344 30.4429 26.1617 32.7829 26.7901C32.8581 26.8104 32.9317 26.8357 32.9929 26.855C32.4787 27.8144 31.9671 28.7696 31.4401 29.7529C37.2745 31.3209 43.0671 32.8773 48.8779 34.4389V34.4385Z" fill="black"/>
  </svg>
  <!-- Fireworks (top-left, on top) -->
  <svg x="0" y="0" width="39" height="39" viewBox="0 0 39 39">
    <path d="M19.1534 38.0879C29.4553 38.0879 37.8067 29.6736 37.8067 19.294C37.8067 8.91435 29.4553 0.5 19.1534 0.5C8.8514 0.5 0.5 8.91435 0.5 19.294C0.5 29.6736 8.8514 38.0879 19.1534 38.0879Z" fill="white" stroke="#E4E4EB"/>
    <path fill-rule="evenodd" clip-rule="evenodd" d="M22.2112 9.04504L18.9427 16.9776L15.6712 9.04504H13.5725L17.1583 17.7167C17.4557 18.4403 18.1532 18.9076 18.9305 18.9076C19.7077 18.9076 20.4037 18.4403 20.7027 17.7198L24.3099 9.04504H22.2112ZM23.6079 21.1311L29.5867 15.0089L28.7712 13.0603L22.2403 19.76C21.6945 20.3205 21.5383 21.1466 21.8401 21.87C22.1407 22.5874 22.8352 23.0517 23.6093 23.0517L23.6125 23.0548L32.9471 23.0314L32.1316 21.0829L23.6093 21.1311H23.6079ZM8.30185 15.0042L9.11743 13.0556L15.6482 19.7554C16.194 20.3143 16.3519 21.1434 16.0483 21.8654C15.7479 22.5844 15.0503 23.0471 14.2792 23.0471L4.94446 23.0252L4.94141 23.0284L5.75699 21.0799L14.2792 21.1279L8.30185 15.0042Z" fill="#6720FF"/>
  </svg>
</svg>
