<svg width="20" height="20" viewBox="0 0 21 21" fill="none" xmlns="http://www.w3.org/2000/svg">
  <!-- DeepSeek (bottom-right) -->
  <svg x="5" y="5" width="16" height="16" viewBox="0 0 16 16">
    <path d="M11.2317 0.0499878H3.98203C1.81086 0.0499878 0.0507812 1.82334 0.0507812 4.01087V11.3152C0.0507812 13.5028 1.81086 15.2761 3.98203 15.2761H11.2317C13.4029 15.2761 15.163 13.5028 15.163 11.3152V4.01087C15.163 1.82334 13.4029 0.0499878 11.2317 0.0499878Z" fill="#F7F7F8" stroke="#E4E4EB" stroke-width="0.1"/>
    <path d="M13.2817 4.36221C13.1694 4.30829 13.1213 4.41613 13.0518 4.47C13.0304 4.48618 13.009 4.51312 12.9929 4.5293C12.8272 4.70719 12.6346 4.82573 12.3779 4.8096C12.0089 4.78799 11.6934 4.90658 11.41 5.19226C11.3511 4.83653 11.1533 4.62633 10.8538 4.49156C10.6987 4.42151 10.5383 4.35141 10.426 4.2005C10.3511 4.09271 10.3297 3.96874 10.2923 3.85015C10.2656 3.7801 10.2442 3.70462 10.1586 3.69387C10.0677 3.67769 10.0356 3.75317 9.99817 3.81784C9.85912 4.07653 9.80566 4.36221 9.81099 4.64789C9.82172 5.29467 10.0944 5.81211 10.6346 6.17859C10.6987 6.22171 10.7094 6.26487 10.6934 6.32412C10.6559 6.44809 10.6132 6.57206 10.5757 6.70146C10.549 6.78226 10.5115 6.79844 10.426 6.76613C10.1318 6.64216 9.87518 6.45889 9.65054 6.23251C9.26551 5.8606 8.91793 5.44558 8.49009 5.12221C8.3885 5.04673 8.28685 4.97668 8.17992 4.90658C7.74137 4.47538 8.23872 4.11965 8.35104 4.07653C8.4687 4.03342 8.39384 3.88251 8.00341 3.88251C7.61304 3.88251 7.25473 4.01724 6.80017 4.18975C6.73064 4.21668 6.6665 4.23286 6.59159 4.24905C6.17982 4.16819 5.75199 4.15201 5.30276 4.20588C4.45783 4.30291 3.78401 4.70176 3.29199 5.39171C2.69842 6.21633 2.55399 7.15417 2.73049 8.13518C2.91229 9.16462 3.43104 10.0216 4.23324 10.6846C5.06211 11.3745 6.01937 11.7141 7.11034 11.6494C7.77349 11.6117 8.51149 11.52 9.34576 10.8085C9.55428 10.9163 9.77892 10.9541 10.1426 10.9864C10.426 11.0134 10.6934 10.9702 10.9073 10.9271C11.2335 10.857 11.2121 10.5498 11.0945 10.4959C10.1319 10.0432 10.3404 10.2264 10.1479 10.0755C10.6399 9.49342 11.3779 8.88437 11.6667 6.91166C11.6881 6.75533 11.6667 6.65829 11.6667 6.52894C11.6667 6.45352 11.6827 6.42116 11.7683 6.41578C12.0089 6.38884 12.2443 6.31874 12.4582 6.20015C13.0839 5.85523 13.3352 5.2893 13.394 4.61015C13.4047 4.50774 13.394 4.39995 13.2817 4.34603V4.36221ZM7.83768 10.4636C6.90177 9.7198 6.45259 9.47723 6.26007 9.48804C6.08356 9.49879 6.11563 9.69824 6.15309 9.83296C6.19054 9.96231 6.24401 10.054 6.31887 10.1671C6.367 10.2426 6.40446 10.3558 6.27074 10.4366C5.97124 10.6253 5.44715 10.372 5.42042 10.3612C4.81079 10 4.30276 9.52035 3.94446 8.86819C3.59683 8.23754 3.39897 7.56382 3.36152 6.84698C3.35084 6.67447 3.40431 6.6098 3.57543 6.57749C3.80007 6.53437 4.03533 6.52357 4.25997 6.56131C5.21189 6.70146 6.02476 7.13261 6.70391 7.81176C7.09428 8.19985 7.38845 8.66337 7.6879 9.11613C8.0088 9.59583 8.35638 10.054 8.79493 10.4313C8.94999 10.5606 9.07299 10.663 9.19598 10.7385C8.83768 10.7816 8.23872 10.787 7.82695 10.4636H7.83768ZM8.28685 7.55844C8.28685 7.47759 8.34571 7.41829 8.42591 7.41829C8.50611 7.41829 8.45798 7.41829 8.47404 7.42909C8.4901 7.43447 8.51149 7.44523 8.52216 7.46141C8.5489 7.48834 8.55962 7.5207 8.55962 7.55844C8.55962 7.63387 8.50077 7.69854 8.42057 7.69854C8.34037 7.69854 8.28685 7.6393 8.28685 7.55844ZM9.67728 8.27528C9.5864 8.31302 9.50082 8.34538 9.41528 8.34538C9.28157 8.35075 9.13718 8.29683 9.05698 8.23216C8.93394 8.12975 8.8484 8.07045 8.81094 7.88724C8.79493 7.81176 8.80561 7.69317 8.81628 7.62312C8.8484 7.47759 8.81628 7.38055 8.70935 7.29432C8.62376 7.22427 8.51683 7.20271 8.39917 7.20271C8.28152 7.20271 8.31359 7.18653 8.28685 7.17035C8.23872 7.14342 8.19598 7.08412 8.23872 7.00864C8.24945 6.98171 8.30825 6.92241 8.32431 6.91703C8.48476 6.82538 8.66655 6.85236 8.83768 6.92241C8.99279 6.98708 9.11578 7.10568 9.2869 7.27814C9.46341 7.48296 9.49548 7.53688 9.59174 7.69317C9.67194 7.81176 9.74147 7.93573 9.7896 8.07588C9.82172 8.16211 9.77892 8.23754 9.67728 8.28065V8.27528Z" fill="#2F52FF"/>
  </svg>
  <!-- Fireworks (top-left, on top) -->
  <svg x="0" y="0" width="10" height="10" viewBox="0 0 10 10">
    <path d="M4.72578 9.44697C7.30771 9.44697 9.40078 7.34339 9.40078 4.74848C9.40078 2.15357 7.30771 0.0499878 4.72578 0.0499878C2.14385 0.0499878 0.0507812 2.15357 0.0507812 4.74848C0.0507812 7.34339 2.14385 9.44697 4.72578 9.44697Z" fill="white" stroke="#E4E4EB" stroke-width="0.1"/>
    <path fill-rule="evenodd" clip-rule="evenodd" d="M5.49232 2.18625L4.67314 4.1694L3.85322 2.18625H3.32722L4.22591 4.35417C4.30045 4.53505 4.47527 4.65189 4.67007 4.65189C4.86487 4.65189 5.03932 4.53505 5.11422 4.35494L6.01832 2.18625H5.49232ZM5.84232 5.20777L7.34077 3.6772L7.13637 3.19005L5.49962 4.865C5.36282 5.00511 5.32362 5.21164 5.39932 5.3925C5.47462 5.57184 5.64867 5.68792 5.84272 5.68792L5.84347 5.68868L8.18297 5.68285L7.97857 5.19571L5.84272 5.20777H5.84232ZM2.00627 3.67604L2.21068 3.18889L3.84745 4.86383C3.98424 5.00355 4.02381 5.21084 3.94774 5.39134C3.87243 5.57109 3.69761 5.68677 3.50435 5.68677L1.16483 5.68129L1.16406 5.68209L1.36847 5.19496L3.50435 5.20697L2.00627 3.67604Z" fill="#6720FF"/>
  </svg>
</svg>
