<svg width="80" height="80" viewBox="0 0 81.5 81.5" fill="none" xmlns="http://www.w3.org/2000/svg">
  <!-- OpenAI (bottom-right) -->
  <svg x="19.5" y="19.5" width="62" height="62" viewBox="0 0 62 62">
    <path d="M46.8405 0.268188H14.3621C6.579 0.268188 0.269531 6.60937 0.269531 14.4316V47.0732C0.269531 54.8955 6.579 61.2366 14.3621 61.2366H46.8405C54.6237 61.2366 60.9331 54.8955 60.9331 47.0732V14.4316C60.9331 6.60937 54.6237 0.268188 46.8405 0.268188Z" fill="#F7F7F8" stroke="#E4E4EB" stroke-width="0.536372"/>
    <path d="M49.0214 27.4656C49.9788 24.6178 49.6492 21.498 48.118 18.9076C45.8154 14.9343 41.1862 12.8903 36.6652 13.8523C34.654 11.6069 31.7644 10.3299 28.735 10.3484C24.1138 10.338 20.0136 13.2863 18.592 17.6437C15.6232 18.2463 13.0608 20.0877 11.5612 22.6978C9.24142 26.6606 9.77022 31.6557 12.8696 35.0537C11.912 37.9016 12.2418 41.0214 13.773 43.6117C16.0756 47.585 20.7048 49.629 25.2256 48.667C27.2356 50.9124 30.1264 52.1894 33.1558 52.1697C37.7796 52.1816 41.8812 49.2304 43.303 44.869C46.2716 44.2666 48.8342 42.425 50.3336 39.8151C52.6508 35.8523 52.1206 30.861 49.0228 27.463L49.0214 27.4656ZM33.1584 49.4368C31.3082 49.4395 29.5158 48.7979 28.0954 47.6228C28.16 47.5888 28.2722 47.5275 28.3448 47.4831L36.7484 42.6734C37.1782 42.4316 37.442 41.9782 37.4394 41.4879V29.7476L40.991 31.7798C41.0292 31.7981 41.0544 31.8348 41.0596 31.8766V41.5991C41.0544 45.9225 37.5212 49.4278 33.1584 49.4368ZM16.1666 42.2447C15.2394 40.658 14.9058 38.7983 15.2236 36.9932C15.2856 37.0298 15.395 37.0965 15.4728 37.141L23.8766 41.9506C24.3024 42.1977 24.83 42.1977 25.2574 41.9506L35.5166 36.0797V40.1444C35.5192 40.1862 35.4994 40.2268 35.4664 40.2529L26.9718 45.1134C23.188 47.2726 18.3558 45.9892 16.168 42.2447H16.1666ZM13.955 24.0662C14.8782 22.4768 16.3354 21.2614 18.071 20.6302C18.071 20.702 18.067 20.8288 18.067 20.9176V30.5382C18.0644 31.027 18.3282 31.4805 18.7568 31.7223L29.016 37.5918L25.4644 39.6242C25.4288 39.6477 25.384 39.6517 25.3444 39.6346L16.8484 34.7701C13.0726 32.6033 11.7776 27.8157 13.9536 24.0674L13.955 24.0662ZM43.1354 30.7956L32.8762 24.9249L36.4278 22.8937C36.4634 22.8702 36.5082 22.8664 36.5478 22.8833L45.0438 27.744C48.8262 29.9096 50.1226 34.7048 47.9374 38.4531C47.0128 40.0399 45.5568 41.2553 43.8226 41.8879V31.9798C43.8266 31.4909 43.564 31.0389 43.1368 30.7956H43.1354ZM46.67 25.5235C46.608 25.4855 46.4984 25.4202 46.4206 25.3757L38.017 20.5661C37.591 20.3191 37.0636 20.3191 36.6362 20.5661L26.377 26.437V22.3723C26.3744 22.3305 26.3942 22.2899 26.4272 22.2638L34.9218 17.4073C38.7054 15.2443 43.543 16.5315 45.7244 20.2825C46.6462 21.8666 46.9798 23.7211 46.6672 25.5235H46.67ZM24.4462 32.7679L20.8934 30.7355C20.855 30.7172 20.83 30.6807 20.8248 30.6389V20.9164C20.8274 16.5878 24.371 13.0799 28.739 13.0825C30.5868 13.0825 32.375 13.7255 33.7954 14.8965C33.7308 14.9305 33.62 14.992 33.5462 15.0364L25.1426 19.8461C24.7126 20.0877 24.4488 20.54 24.4516 21.03L24.4462 32.7653V32.7679ZM26.3756 28.6457L30.9454 26.0306L35.5152 28.6445V33.8736L30.9454 36.4875L26.3756 33.8736V28.6457Z" fill="black"/>
  </svg>
  <!-- Fireworks (top-left, on top) -->
  <svg x="0" y="0" width="39" height="39" viewBox="0 0 39 39">
    <path d="M19.1534 38.0879C29.4553 38.0879 37.8067 29.6736 37.8067 19.294C37.8067 8.91435 29.4553 0.5 19.1534 0.5C8.8514 0.5 0.5 8.91435 0.5 19.294C0.5 29.6736 8.8514 38.0879 19.1534 38.0879Z" fill="white" stroke="#E4E4EB"/>
    <path fill-rule="evenodd" clip-rule="evenodd" d="M22.2112 9.04504L18.9427 16.9776L15.6712 9.04504H13.5725L17.1583 17.7167C17.4557 18.4403 18.1532 18.9076 18.9305 18.9076C19.7077 18.9076 20.4037 18.4403 20.7027 17.7198L24.3099 9.04504H22.2112ZM23.6079 21.1311L29.5867 15.0089L28.7712 13.0603L22.2403 19.76C21.6945 20.3205 21.5383 21.1466 21.8401 21.87C22.1407 22.5874 22.8352 23.0517 23.6093 23.0517L23.6125 23.0548L32.9471 23.0314L32.1316 21.0829L23.6093 21.1311H23.6079ZM8.30185 15.0042L9.11743 13.0556L15.6482 19.7554C16.194 20.3143 16.3519 21.1434 16.0483 21.8654C15.7479 22.5844 15.0503 23.0471 14.2792 23.0471L4.94446 23.0252L4.94141 23.0284L5.75699 21.0799L14.2792 21.1279L8.30185 15.0042Z" fill="#6720FF"/>
  </svg>
</svg>
