<svg width="20" height="20" viewBox="0 0 21 21" fill="none" xmlns="http://www.w3.org/2000/svg">
  <!-- OpenAI (bottom-right) -->
  <svg x="5" y="5" width="16" height="16" viewBox="0 0 16 16">
    <path d="M11.7092 0.0670166H3.58956C1.64377 0.0670166 0.0664062 1.65231 0.0664062 3.60787V11.7683C0.0664062 13.7238 1.64377 15.3091 3.58956 15.3091H11.7092C13.6549 15.3091 15.2323 13.7238 15.2323 11.7683V3.60787C15.2323 1.65231 13.6549 0.0670166 11.7092 0.0670166Z" fill="#F7F7F8" stroke="#E4E4EB" stroke-width="0.134093"/>
    <path d="M12.2554 6.86632C12.4947 6.15436 12.4123 5.37441 12.0295 4.72682C11.4539 3.73351 10.2966 3.2225 9.16631 3.463C8.66351 2.90165 7.94111 2.5824 7.18376 2.58702C6.02846 2.58441 5.00341 3.3215 4.64801 4.41084C3.90581 4.5615 3.26521 5.02185 2.89031 5.67436C2.31036 6.66506 2.44256 7.91386 3.21741 8.76336C2.97801 9.47532 3.06046 10.2553 3.44326 10.9029C4.01891 11.8962 5.17621 12.4072 6.30641 12.1667C6.80891 12.728 7.53161 13.0473 8.28896 13.0424C9.44491 13.0453 10.4703 12.3075 10.8258 11.2172C11.5679 11.0666 12.2086 10.6062 12.5834 9.95371C13.1627 8.96301 13.0302 7.71517 12.2557 6.86567L12.2554 6.86632ZM8.28961 12.3591C7.82706 12.3598 7.37896 12.1994 7.02386 11.9056C7.04001 11.8971 7.06806 11.8818 7.08621 11.8707L9.1871 10.6683C9.29455 10.6078 9.36051 10.4945 9.35986 10.3719V7.43682L10.2478 7.94486C10.2573 7.94944 10.2636 7.95863 10.2649 7.96908V10.3997C10.2636 11.4805 9.38031 12.3569 8.28961 12.3591ZM4.04166 10.5611C3.80986 10.1644 3.72646 9.69949 3.80591 9.24823C3.82141 9.25738 3.84876 9.27406 3.86821 9.28517L5.96916 10.4876C6.07561 10.5493 6.20751 10.5493 6.31436 10.4876L8.87915 9.01984V10.036C8.8798 10.0465 8.87486 10.0566 8.86661 10.0632L6.74296 11.2783C5.79701 11.8181 4.58896 11.4972 4.04201 10.5611H4.04166ZM3.48876 6.01647C3.71956 5.61914 4.08386 5.31527 4.51776 5.15748C4.51776 5.17542 4.51676 5.20713 4.51676 5.22934V7.63446C4.51611 7.75667 4.58206 7.87004 4.68921 7.93049L7.25401 9.39788L6.36611 9.90597C6.35721 9.91185 6.34601 9.91285 6.33611 9.90858L4.21211 8.69245C3.26816 8.15074 2.94441 6.95386 3.48841 6.01677L3.48876 6.01647ZM10.7839 7.69883L8.21906 6.23115L9.10695 5.72336C9.11585 5.71748 9.12705 5.71652 9.13695 5.72074L11.261 6.93592C12.2066 7.47733 12.5307 8.67612 11.9844 9.61321C11.7532 10.0099 11.3892 10.3138 10.9557 10.4719V7.99486C10.9567 7.87265 10.891 7.75964 10.7842 7.69883H10.7839ZM11.6675 6.38079C11.652 6.3713 11.6246 6.35496 11.6052 6.34386L9.50426 5.14145C9.39776 5.07969 9.26591 5.07969 9.15906 5.14145L6.59426 6.60919V5.593C6.59361 5.58255 6.59856 5.5724 6.60681 5.56587L8.73046 4.35175C9.67635 3.81099 10.8858 4.1328 11.4311 5.07054C11.6616 5.46657 11.745 5.93019 11.6668 6.38079H11.6675ZM6.11156 8.1919L5.22336 7.68381C5.21376 7.67924 5.20751 7.67009 5.20621 7.65964V5.22903C5.20686 4.14687 6.09276 3.26989 7.18476 3.27054C7.64671 3.27054 8.09376 3.4313 8.44886 3.72406C8.43271 3.73255 8.40501 3.74793 8.38656 3.75903L6.28566 4.96145C6.17816 5.02185 6.11221 5.13491 6.11291 5.25743L6.11156 8.19125V8.1919ZM6.59391 7.16135L7.73636 6.50758L8.87881 7.16105V8.46833L7.73636 9.1218L6.59391 8.46833V7.16135Z" fill="black"/>
  </svg>
  <!-- Fireworks (top-left, on top) -->
  <svg x="0" y="0" width="10" height="10" viewBox="0 0 10 10">
    <path d="M4.72578 9.44697C7.30771 9.44697 9.40078 7.34339 9.40078 4.74848C9.40078 2.15357 7.30771 0.0499878 4.72578 0.0499878C2.14385 0.0499878 0.0507812 2.15357 0.0507812 4.74848C0.0507812 7.34339 2.14385 9.44697 4.72578 9.44697Z" fill="white" stroke="#E4E4EB" stroke-width="0.1"/>
    <path fill-rule="evenodd" clip-rule="evenodd" d="M5.49232 2.18625L4.67314 4.1694L3.85322 2.18625H3.32722L4.22591 4.35417C4.30045 4.53505 4.47527 4.65189 4.67007 4.65189C4.86487 4.65189 5.03932 4.53505 5.11422 4.35494L6.01832 2.18625H5.49232ZM5.84232 5.20777L7.34077 3.6772L7.13637 3.19005L5.49962 4.865C5.36282 5.00511 5.32362 5.21164 5.39932 5.3925C5.47462 5.57184 5.64867 5.68792 5.84272 5.68792L5.84347 5.68868L8.18297 5.68285L7.97857 5.19571L5.84272 5.20777H5.84232ZM2.00627 3.67604L2.21068 3.18889L3.84745 4.86383C3.98424 5.00355 4.02381 5.21084 3.94774 5.39134C3.87243 5.57109 3.69761 5.68677 3.50435 5.68677L1.16483 5.68129L1.16406 5.68209L1.36847 5.19496L3.50435 5.20697L2.00627 3.67604Z" fill="#6720FF"/>
  </svg>
</svg>
