<svg width="256" height="256" viewBox="0 0 256 256" fill="none" xmlns="http://www.w3.org/2000/svg">
<mask id="mask0_333_17405" style="mask-type:luminance" maskUnits="userSpaceOnUse" x="0" y="0" width="256" height="256">
<path d="M256 0H0V256H256V0Z" fill="white"/>
</mask>
<g mask="url(#mask0_333_17405)">
<path d="M215.737 147.002C214.856 147.562 213.673 147.277 213.15 146.369L177.016 83.7818C172.979 76.7992 165.684 72.2114 157.665 71.8994C163.28 72.0554 168.629 73.6428 173.254 76.3129L217.205 101.693C225.583 106.528 230.794 115.621 230.198 125.274C229.758 132.403 226.252 140.359 215.728 146.993L215.737 147.002Z" fill="url(#paint0_linear_333_17405)"/>
<path d="M191.605 109.061C190.137 106.51 187.403 104.932 184.457 104.932H142.25C140.726 104.932 139.497 103.693 139.497 102.179V74.6521C139.497 73.1289 140.726 71.8994 142.25 71.8994H156.747C157.059 71.8994 157.362 71.8994 157.674 71.9178C165.702 72.2297 172.997 76.8084 177.025 83.8002L191.614 109.07L191.605 109.061Z" fill="url(#paint1_linear_333_17405)"/>
<path d="M155.407 213.489C154.481 213.002 154.141 211.837 154.664 210.938L190.798 148.351C194.835 141.368 195.147 132.752 191.413 125.65C194.083 130.587 195.386 136.019 195.386 141.359V192.119C195.386 201.79 190.119 210.855 181.457 215.168C175.062 218.352 166.418 219.297 155.417 213.498L155.407 213.489Z" fill="url(#paint2_linear_333_17405)"/>
<path d="M176.209 173.621C177.686 171.07 177.686 167.914 176.209 165.363L155.105 128.807C154.343 127.495 154.793 125.807 156.114 125.045L179.952 111.282C181.264 110.52 182.953 110.97 183.714 112.291L190.963 124.843C191.119 125.109 191.266 125.375 191.413 125.651C195.156 132.762 194.835 141.368 190.798 148.351L176.209 173.621Z" fill="url(#paint3_linear_333_17405)"/>
<path d="M67.6701 194.486C67.6334 193.44 68.4592 192.559 69.5052 192.559H141.772C149.838 192.559 157.454 188.531 161.739 181.741C158.793 186.522 154.747 190.366 150.122 193.036L106.171 218.416C97.7936 223.252 87.3151 223.224 79.2497 217.875C73.2947 213.929 68.1564 206.919 67.6792 194.486H67.6701Z" fill="url(#paint4_linear_333_17405)"/>
<path d="M112.594 192.56C115.539 192.56 118.274 190.981 119.742 188.431L140.846 151.875C141.607 150.563 143.286 150.104 144.608 150.866L168.446 164.629C169.758 165.391 170.217 167.07 169.455 168.391L162.207 180.943C162.051 181.209 161.895 181.475 161.729 181.732C157.444 188.531 149.829 192.56 141.763 192.55H112.585L112.594 192.56Z" fill="url(#paint5_linear_333_17405)"/>
<path d="M40.263 108.997C41.1438 108.437 42.3275 108.722 42.8505 109.63L78.9841 172.217C83.0214 179.2 90.3159 183.787 98.3354 184.099C92.7199 183.943 87.3706 182.356 82.7461 179.686L38.7949 154.306C30.4175 149.471 25.2058 140.378 25.8022 130.725C26.2426 123.595 29.7477 115.64 40.2721 109.006L40.263 108.997Z" fill="url(#paint6_linear_333_17405)"/>
<path d="M64.394 146.938C65.8621 149.489 68.5964 151.067 71.5418 151.067H113.75C115.273 151.067 116.503 152.306 116.503 153.82V181.346C116.503 182.87 115.273 184.099 113.75 184.099H99.2522C98.9402 184.099 98.6374 184.099 98.3254 184.081C90.2968 183.769 83.0021 179.19 78.974 172.198L64.3848 146.929L64.394 146.938Z" fill="url(#paint7_linear_333_17405)"/>
<path d="M100.592 42.5103C101.519 42.9966 101.858 44.1619 101.335 45.0611L65.2021 107.648C61.1649 114.631 60.8529 123.247 64.5874 130.349C61.9173 125.412 60.6143 119.98 60.6143 114.64V63.8803C60.6143 54.2092 65.8811 45.1437 74.5429 40.8311C80.9383 37.6472 89.5818 36.7021 100.583 42.5011L100.592 42.5103Z" fill="url(#paint8_linear_333_17405)"/>
<path d="M79.7909 82.3779C78.3136 84.9288 78.3136 88.0852 79.7909 90.636L100.895 127.192C101.657 128.504 101.207 130.192 99.8855 130.954L76.0472 144.717C74.7351 145.479 73.0468 145.029 72.2852 143.708L65.0365 131.156C64.8805 130.889 64.7337 130.623 64.5869 130.348C60.8432 123.237 61.1644 114.63 65.2016 107.648L79.7909 82.3779Z" fill="url(#paint9_linear_333_17405)"/>
<path d="M79.7909 82.3779C78.3136 84.9288 78.3136 88.0852 79.7909 90.636L100.895 127.192C101.657 128.504 101.207 130.192 99.8855 130.954L76.0472 144.717C74.7351 145.479 73.0468 145.029 72.2852 143.708L65.0365 131.156C64.8805 130.889 64.7337 130.623 64.5869 130.348C60.8432 123.237 61.1644 114.63 65.2016 107.648L79.7909 82.3779Z" fill="url(#paint10_linear_333_17405)"/>
<path d="M188.33 61.5129C188.366 62.559 187.54 63.4398 186.494 63.4398H114.227C106.162 63.4398 98.5458 67.4679 94.2607 74.2579C97.2061 69.4774 101.253 65.6328 105.877 62.9627L149.829 37.5829C158.206 32.7473 168.685 32.7749 176.75 38.1243C182.705 42.0698 187.843 49.08 188.32 61.5129H188.33Z" fill="url(#paint11_linear_333_17405)"/>
<path d="M188.33 61.5129C188.366 62.559 187.54 63.4398 186.494 63.4398H114.227C106.162 63.4398 98.5458 67.4679 94.2607 74.2579C97.2061 69.4774 101.253 65.6328 105.877 62.9627L149.829 37.5829C158.206 32.7473 168.685 32.7749 176.75 38.1243C182.705 42.0698 187.843 49.08 188.32 61.5129H188.33Z" fill="url(#paint12_linear_333_17405)"/>
<path d="M143.406 63.4395C140.46 63.4395 137.726 65.0177 136.258 67.5685L115.154 104.124C114.392 105.436 112.713 105.895 111.392 105.134L87.5536 91.3701C86.2415 90.6085 85.7827 88.9294 86.5443 87.6081L93.7931 75.0558C93.949 74.7897 94.105 74.5236 94.2702 74.2667C98.5552 67.4676 106.171 63.4395 114.236 63.4486H143.415L143.406 63.4395Z" fill="url(#paint13_linear_333_17405)"/>
</g>
<defs>
<linearGradient id="paint0_linear_333_17405" x1="232.209" y1="176.935" x2="170.794" y2="74.2109" gradientUnits="userSpaceOnUse">
<stop stop-color="#4F42FD"/>
<stop offset="0.6" stop-color="#7274FF"/>
</linearGradient>
<linearGradient id="paint1_linear_333_17405" x1="191.614" y1="90.4846" x2="145.06" y2="76.5277" gradientUnits="userSpaceOnUse">
<stop stop-color="#2C08AC"/>
<stop offset="0.7" stop-color="#4F42FD"/>
</linearGradient>
<linearGradient id="paint2_linear_333_17405" x1="139.355" y1="239.081" x2="197.035" y2="136.659" gradientUnits="userSpaceOnUse">
<stop stop-color="#4F42FD"/>
<stop offset="0.6" stop-color="#7274FF"/>
</linearGradient>
<linearGradient id="paint3_linear_333_17405" x1="194.034" y1="162.47" x2="157.078" y2="138.173" gradientUnits="userSpaceOnUse">
<stop stop-color="#2C08AC"/>
<stop offset="0.7" stop-color="#4F42FD"/>
</linearGradient>
<linearGradient id="paint4_linear_333_17405" x1="26.03" y1="186.552" x2="165.526" y2="186.552" gradientUnits="userSpaceOnUse">
<stop stop-color="#4F42FD"/>
<stop offset="0.6" stop-color="#7274FF"/>
</linearGradient>
<linearGradient id="paint5_linear_333_17405" x1="112.585" y1="192.56" x2="137.96" y2="150.497" gradientUnits="userSpaceOnUse">
<stop stop-color="#2C08AC"/>
<stop offset="0.7" stop-color="#4F42FD"/>
</linearGradient>
<linearGradient id="paint6_linear_333_17405" x1="25.7559" y1="82.4069" x2="86.2907" y2="184.099" gradientUnits="userSpaceOnUse">
<stop stop-color="#4F42FD"/>
<stop offset="0.6" stop-color="#7274FF"/>
</linearGradient>
<linearGradient id="paint7_linear_333_17405" x1="64.3848" y1="146.929" x2="116.503" y2="146.929" gradientUnits="userSpaceOnUse">
<stop stop-color="#2C08AC"/>
<stop offset="0.7" stop-color="#4F42FD"/>
</linearGradient>
<linearGradient id="paint8_linear_333_17405" x1="120.306" y1="11.4868" x2="57.4674" y2="121.64" gradientUnits="userSpaceOnUse">
<stop stop-color="#4F42FD"/>
<stop offset="0.6" stop-color="#7274FF"/>
</linearGradient>
<linearGradient id="paint9_linear_333_17405" x1="103.354" y1="123.329" x2="64.2841" y2="109.116" gradientUnits="userSpaceOnUse">
<stop stop-color="#9189F7"/>
<stop offset="1" stop-color="#4135E9"/>
</linearGradient>
<linearGradient id="paint10_linear_333_17405" x1="78.5964" y1="82.3779" x2="103.798" y2="128.211" gradientUnits="userSpaceOnUse">
<stop stop-color="#2C08AC"/>
<stop offset="0.7" stop-color="#4F42FD"/>
</linearGradient>
<linearGradient id="paint11_linear_333_17405" x1="138.809" y1="82.1122" x2="147.828" y2="30.9581" gradientUnits="userSpaceOnUse">
<stop stop-color="#9189F7"/>
<stop offset="1" stop-color="#4135E9"/>
</linearGradient>
<linearGradient id="paint12_linear_333_17405" x1="236.005" y1="63.2367" x2="103.303" y2="63.9759" gradientUnits="userSpaceOnUse">
<stop stop-color="#4F42FD"/>
<stop offset="0.6" stop-color="#7274FF"/>
</linearGradient>
<linearGradient id="paint13_linear_333_17405" x1="136.82" y1="63.4395" x2="102.836" y2="95.6141" gradientUnits="userSpaceOnUse">
<stop stop-color="#2C08AC"/>
<stop offset="0.7" stop-color="#4F42FD"/>
</linearGradient>
</defs>
</svg>
