<svg width="20" height="20" viewBox="0 0 20 20" fill="none" xmlns="http://www.w3.org/2000/svg">
<g clip-path="url(#clip0_496_12369)">
<path fill-rule="evenodd" clip-rule="evenodd" d="M0.876729 14.0967L8.82589 16.2234C8.8152 16.7886 8.83188 17.354 8.8759 17.9175L13.8392 19.245C12.3671 19.8527 10.7712 20.0998 9.18423 19.9659L9.03423 19.9525L8.99756 19.9492L8.92756 19.9417L8.84923 19.9334C8.80558 19.9281 8.76197 19.9226 8.7184 19.9167L8.62923 19.905L8.53756 19.8917C8.44848 19.8787 8.35959 19.8646 8.2709 19.8492L8.2359 19.8425L8.17339 19.8317L8.08423 19.815L8.02589 19.8025L7.9484 19.7867L7.8859 19.7734L7.80673 19.7567L7.7259 19.7375L7.64756 19.7192L7.5909 19.705L7.51756 19.6867L7.44256 19.6667L7.3634 19.6459L7.29506 19.6267L7.20423 19.6017L7.15256 19.585L7.08256 19.5642L7.00506 19.5409L6.91756 19.5125L6.86923 19.4967L6.80256 19.475L6.72756 19.4492L6.67256 19.4292C6.66032 19.4251 6.6481 19.4209 6.6359 19.4167L6.57923 19.3959L6.49506 19.365L6.44756 19.3467L6.3809 19.3217L6.3084 19.2925L6.23506 19.2634L6.16923 19.2367L6.09006 19.2034L6.03756 19.18L5.98506 19.1575C5.97365 19.1526 5.96226 19.1476 5.9509 19.1425L5.8959 19.1175L5.81006 19.0784L5.76673 19.0584L5.68673 19.02L5.63506 18.995L5.56506 18.9617L5.4934 18.925L5.4159 18.8859L5.37256 18.8634L5.28673 18.8175L5.23923 18.7925L5.1909 18.7659C5.17809 18.7587 5.16531 18.7515 5.15256 18.7442L5.07423 18.7L5.02423 18.6717L4.98173 18.6467L4.92173 18.6125L4.8534 18.5709L4.7759 18.5242L4.73256 18.4975L4.66256 18.4534L4.61173 18.4209L4.5459 18.3792L4.48756 18.34L4.4434 18.3109C4.42835 18.3009 4.41335 18.2909 4.3984 18.2809L4.36173 18.2559L4.32506 18.2309C4.31392 18.2231 4.30281 18.2154 4.29173 18.2075L4.24423 18.1742L4.1809 18.1292L4.1234 18.0875L4.06173 18.0425L4.01506 18.0075L3.95173 17.96L3.8884 17.9109L3.81673 17.855L3.77923 17.8259L3.7259 17.7825L3.66423 17.7325L3.59006 17.6717L3.55173 17.6392L3.5134 17.6067C3.50141 17.5965 3.48947 17.5862 3.47756 17.5759L3.44006 17.5425L3.38923 17.4984L3.3309 17.4467L3.27423 17.3967L3.22256 17.3484L3.16673 17.2967L3.12256 17.255L3.04923 17.185C3.02159 17.1582 2.99409 17.1313 2.96673 17.1042L2.94256 17.0809L2.9084 17.0459L2.8509 16.9875L2.80923 16.945L2.76756 16.9009C2.71995 16.852 2.67328 16.8023 2.62756 16.7517L2.5609 16.6784L2.50923 16.62L2.45006 16.5534L2.41506 16.5125L2.3709 16.4609L2.32256 16.4042L2.28423 16.3575C2.2767 16.3484 2.2692 16.3392 2.26173 16.33L2.22423 16.2842L2.16923 16.2159L2.13506 16.1725L2.0934 16.1192L2.07673 16.0984C1.59991 15.4803 1.19716 14.8085 0.876729 14.0967ZM0.0267286 9.26837L9.48756 11.7992C9.32917 12.3509 9.19873 12.9102 9.09673 13.475L18.1109 15.8867C17.6631 16.4999 17.1473 17.0604 16.5734 17.5575L0.547562 13.2692L0.534229 13.2309L0.505062 13.1442C0.490887 13.1018 0.476998 13.0593 0.463395 13.0167L0.457562 12.9975C0.393419 12.7936 0.335889 12.5877 0.285062 12.38L0.260062 12.275L0.245062 12.2084L0.227562 12.1275L0.212562 12.06L0.197562 11.985L0.183395 11.915L0.168395 11.8367C0.146729 11.7192 0.126729 11.6009 0.109229 11.4817L0.095062 11.3834L0.0858953 11.3142L0.075062 11.2292C0.0694824 11.1845 0.0642045 11.1398 0.0592286 11.095L0.055062 11.0559C-0.00719956 10.462 -0.0166811 9.86387 0.0267286 9.26837ZM1.35423 4.97671L11.3109 7.64004C11.0042 8.14421 10.7234 8.66587 10.4692 9.20254L19.8817 11.7209C19.7634 12.4042 19.5751 13.0642 19.3251 13.6917L9.70006 11.1167L0.103395 8.55004L0.115895 8.46671L0.122562 8.42587L0.130895 8.37004L0.143395 8.29754L0.158395 8.21587C0.180062 8.09254 0.205062 7.97004 0.231729 7.84754L0.255062 7.74421L0.271729 7.67337L0.291729 7.59254C0.310062 7.51754 0.329229 7.44254 0.350062 7.36921L0.373395 7.28421L0.392562 7.21504L0.417562 7.13171L0.438395 7.06337L0.463395 6.98337L0.485062 6.91504L0.510895 6.83587C0.726691 6.18856 1.00874 5.56525 1.35256 4.97587L1.35423 4.97671ZM5.0559 1.31004L14.4601 3.82504C13.9638 4.27546 13.4941 4.75432 13.0534 5.25921L19.5726 7.00337C19.7951 7.71337 19.9409 8.45671 20.0001 9.22421L1.75506 4.34421L1.79256 4.29004L1.81506 4.25671L1.8484 4.21087L1.88673 4.15671L1.93256 4.09337L1.97756 4.03337L2.0309 3.96171L2.07256 3.90754L2.12006 3.84671L2.1659 3.78837L2.2159 3.72671L2.26173 3.66921L2.3159 3.60504L2.3609 3.55004L2.4159 3.48587L2.46006 3.43587L2.52006 3.36754L2.56423 3.31754L2.62006 3.25587L2.66506 3.20754L2.7259 3.14254L2.77423 3.09254L2.82673 3.03671L2.96673 2.89504L3.05006 2.81337L3.09923 2.76671L3.16256 2.70754C3.73689 2.16931 4.37234 1.70028 5.0559 1.31004ZM10.0142 3.98763e-05H10.0951L10.1634 0.00087321L10.2209 0.00170654L10.2659 0.00337321L10.3226 0.00503988L10.3609 0.00587321L10.4242 0.00837321L10.4634 0.0100399L10.5134 0.0125399L10.5584 0.0142065L10.6309 0.0183732L10.7184 0.0242065L10.8384 0.0333732L10.9117 0.0392065L10.9484 0.0425399L11.0126 0.0492065L11.0809 0.0558732L11.1201 0.0600399L11.2051 0.0700399L11.2467 0.0750399L11.3367 0.0867065L11.4042 0.0950399L11.4392 0.10004L11.4934 0.108373L11.6659 0.13504L11.7242 0.14504L11.7784 0.154207L11.8951 0.175873L11.9717 0.190873L12.0634 0.209207L12.1017 0.21754L12.1642 0.230873L12.1984 0.239207L12.2501 0.25004L12.2851 0.258373L12.3392 0.270873L12.3801 0.280873L12.4392 0.29504L12.5192 0.31504L12.6126 0.34004L12.7067 0.36504L12.8009 0.391707L12.8426 0.404207L12.9009 0.420873L12.9659 0.440873L13.0267 0.46004L13.0684 0.473373L13.1101 0.486707L13.1734 0.50754L13.2559 0.53504L13.3409 0.56504L13.3809 0.579207L13.4342 0.598373L13.5117 0.626706L13.6034 0.660873L13.7001 0.698373L13.7834 0.731707L13.8226 0.748373L13.8726 0.768373L13.9067 0.783373L13.9592 0.80504L13.9926 0.82004L14.0401 0.840873L14.1317 0.880873L14.2151 0.919207L14.2767 0.948373L14.3392 0.978373L14.3892 1.00171L14.4659 1.04004L14.5417 1.07754L14.6267 1.12087L14.6709 1.14421L14.7117 1.16587L14.7501 1.18587L14.8001 1.21337L14.8342 1.23171L14.8776 1.25587L14.9509 1.29754L15.0392 1.34754L15.1117 1.39004L15.1592 1.41837L15.2034 1.44504L15.2834 1.49421L15.3567 1.54004L15.4384 1.59171L15.4684 1.61171L15.5217 1.64587L15.5917 1.69254L15.6251 1.71504L15.6767 1.75004L15.7284 1.78587L15.7476 1.80004C15.7926 1.83087 15.8376 1.86254 15.8817 1.89504L15.9509 1.94504L16.0051 1.98504L16.0517 2.02087L16.1234 2.07504L16.1917 2.12837L16.2251 2.15337L16.2667 2.18754L16.3384 2.24504L16.4042 2.29921L16.4751 2.35837C17.0684 2.85837 17.6026 3.42754 18.0659 4.05087L6.0184 0.828373L6.07006 0.805873L6.12423 0.78254L6.19173 0.754206L6.2634 0.72504C6.35756 0.68754 6.45256 0.65004 6.54756 0.615873L6.62756 0.586707L6.70506 0.559207L6.77506 0.534206L6.85506 0.508373C6.92756 0.483373 7.00173 0.46004 7.07506 0.43754L7.1509 0.41504L7.22256 0.394207L7.30756 0.369207L7.3784 0.35004L7.46173 0.328373L7.5334 0.308373L7.6084 0.289207L7.68423 0.270873L7.7634 0.25254L7.8384 0.235873L7.92006 0.218373L7.9959 0.201707L8.07506 0.186707L8.15173 0.171707L8.23506 0.156707L8.31089 0.143373L8.39256 0.129207L8.46923 0.11754L8.55006 0.10504L8.62673 0.0942065L8.71173 0.0833732L8.78756 0.0733732L8.87506 0.0633732L8.95006 0.0550399L9.03756 0.0467065C9.11506 0.0383732 9.19256 0.0317065 9.2709 0.0267065L9.35923 0.0200399L9.43423 0.0158732L9.52589 0.0108732L9.6034 0.00753988L9.68673 0.00420654L9.76756 0.00253988L9.85006 0.00087321L10.0142 -0.000793457V3.98763e-05Z" fill="black"/>
</g>
<defs>
<clipPath id="clip0_496_12369">
<rect width="20" height="20" fill="white"/>
</clipPath>
</defs>
</svg>
