<svg width="80" height="80" viewBox="0 0 80 80" fill="none" xmlns="http://www.w3.org/2000/svg">
<g clip-path="url(#clip0_495_12366)">
<path fill-rule="evenodd" clip-rule="evenodd" d="M3.50691 56.3868L35.3036 64.8934C35.2608 67.1542 35.3275 69.4158 35.5036 71.6701L55.3569 76.9801C49.4685 79.4105 43.0846 80.3991 36.7369 79.8634L36.1369 79.8101L35.9902 79.7968L35.7102 79.7668L35.3969 79.7334C35.2223 79.7124 35.0479 79.6902 34.8736 79.6668L34.5169 79.6201L34.1502 79.5668C33.7939 79.5149 33.4384 79.4582 33.0836 79.3968L32.9436 79.3701L32.6936 79.3268L32.3369 79.2601L32.1036 79.2101L31.7936 79.1468L31.5436 79.0934L31.2269 79.0268L30.9036 78.9501L30.5902 78.8768L30.3636 78.8201L30.0702 78.7468L29.7702 78.6668L29.4536 78.5834L29.1802 78.5068L28.8169 78.4068L28.6102 78.3401L28.3302 78.2568L28.0202 78.1634L27.6702 78.0501L27.4769 77.9868L27.2102 77.9001L26.9102 77.7968L26.6902 77.7168C26.6413 77.7003 26.5924 77.6836 26.5436 77.6668L26.3169 77.5834L25.9802 77.4601L25.7902 77.3868L25.5236 77.2868L25.2336 77.1701L24.9402 77.0534L24.6769 76.9468L24.3602 76.8134L24.1502 76.7201L23.9402 76.6301C23.8946 76.6103 23.8491 76.5903 23.8036 76.5701L23.5836 76.4701L23.2402 76.3134L23.0669 76.2334L22.7469 76.0801L22.5402 75.9801L22.2602 75.8468L21.9736 75.7001L21.6636 75.5434L21.4902 75.4534L21.1469 75.2701L20.9569 75.1701L20.7636 75.0634C20.7124 75.0347 20.6612 75.0059 20.6102 74.9768L20.2969 74.8001L20.0969 74.6868L19.9269 74.5868L19.6869 74.4501L19.4136 74.2834L19.1036 74.0968L18.9302 73.9901L18.6502 73.8134L18.4469 73.6834L18.1836 73.5168L17.9502 73.3601L17.7736 73.2434C17.7134 73.2037 17.6534 73.1637 17.5936 73.1234L17.4469 73.0234L17.3002 72.9234C17.2557 72.8925 17.2112 72.8614 17.1669 72.8301L16.9769 72.6968L16.7236 72.5168L16.4936 72.3501L16.2469 72.1701L16.0602 72.0301L15.8069 71.8401L15.5536 71.6434L15.2669 71.4201L15.1169 71.3034L14.9036 71.1301L14.6569 70.9301L14.3602 70.6868L14.2069 70.5568L14.0536 70.4268C14.0056 70.3858 13.9579 70.3447 13.9102 70.3034L13.7602 70.1701L13.5569 69.9934L13.3236 69.7868L13.0969 69.5868L12.8902 69.3934L12.6669 69.1868L12.4902 69.0201L12.1969 68.7401C12.0864 68.6329 11.9764 68.5251 11.8669 68.4168L11.7702 68.3234L11.6336 68.1834L11.4036 67.9501L11.2369 67.7801L11.0702 67.6034C10.8798 67.4081 10.6931 67.2092 10.5102 67.0068L10.2436 66.7134L10.0369 66.4801L9.80025 66.2134L9.66025 66.0501L9.48358 65.8434L9.29025 65.6168L9.13691 65.4301C9.10681 65.3935 9.07681 65.3569 9.04691 65.3201L8.89691 65.1368L8.67691 64.8634L8.54025 64.6901L8.37358 64.4768L8.30691 64.3934C6.39964 61.9212 4.78866 59.234 3.50691 56.3868ZM0.106915 37.0734L37.9502 47.1968C37.3167 49.4035 36.7949 51.6408 36.3869 53.9001L72.4436 63.5468C70.6523 65.9994 68.5891 68.2415 66.2936 70.2301L2.19025 53.0768L2.13691 52.9234L2.02025 52.5768C1.96355 52.4071 1.90799 52.2371 1.85358 52.0668L1.83025 51.9901C1.57368 51.1744 1.34356 50.3507 1.14025 49.5201L1.04025 49.1001L0.980248 48.8334L0.910248 48.5101L0.850248 48.2401L0.790248 47.9401L0.733581 47.6601L0.673581 47.3468C0.586915 46.8768 0.506915 46.4034 0.436915 45.9268L0.380248 45.5334L0.343581 45.2568L0.300248 44.9168C0.27793 44.738 0.256818 44.5591 0.236914 44.3801L0.220248 44.2234C-0.0287982 41.8481 -0.0667245 39.4554 0.106915 37.0734ZM5.41691 19.9068L45.2436 30.5601C44.0169 32.5768 42.8936 34.6634 41.8769 36.8101L79.5269 46.8834C79.0536 49.6168 78.3002 52.2568 77.3002 54.7668L38.8002 44.4668L0.413581 34.2001L0.463581 33.8668L0.490248 33.7034L0.523581 33.4801L0.573581 33.1901L0.633581 32.8634C0.720248 32.3701 0.820248 31.8801 0.926914 31.3901L1.02025 30.9768L1.08691 30.6934L1.16691 30.3701C1.24025 30.0701 1.31691 29.7701 1.40025 29.4768L1.49358 29.1368L1.57025 28.8601L1.67025 28.5268L1.75358 28.2534L1.85358 27.9334L1.94025 27.6601L2.04358 27.3434C2.90676 24.7542 4.03497 22.261 5.41025 19.9034L5.41691 19.9068ZM20.2236 5.2401L57.8402 15.3001C55.8552 17.1018 53.9765 19.0172 52.2136 21.0368L78.2902 28.0134C79.1802 30.8534 79.7636 33.8268 80.0002 36.8968L7.02025 17.3768L7.17025 17.1601L7.26025 17.0268L7.39358 16.8434L7.54691 16.6268L7.73025 16.3734L7.91025 16.1334L8.12358 15.8468L8.29025 15.6301L8.48025 15.3868L8.66358 15.1534L8.86358 14.9068L9.04691 14.6768L9.26358 14.4201L9.44358 14.2001L9.66358 13.9434L9.84025 13.7434L10.0802 13.4701L10.2569 13.2701L10.4802 13.0234L10.6602 12.8301L10.9036 12.5701L11.0969 12.3701L11.3069 12.1468L11.8669 11.5801L12.2002 11.2534L12.3969 11.0668L12.6502 10.8301C14.9475 8.67719 17.4893 6.80105 20.2236 5.2401ZM40.0569 9.84701e-05H40.3802L40.6536 0.0034318L40.8836 0.00676514L41.0636 0.0134318L41.2902 0.0200985L41.4436 0.0234318L41.6969 0.0334318L41.8536 0.0400985L42.0536 0.0500985L42.2336 0.0567651L42.5236 0.0734318L42.8736 0.0967651L43.3536 0.133432L43.6469 0.156765L43.7936 0.170098L44.0502 0.196765L44.3236 0.223432L44.4802 0.240098L44.8202 0.280098L44.9869 0.300098L45.3469 0.346765L45.6169 0.380098L45.7569 0.400098L45.9736 0.433432L46.6636 0.540098L46.8969 0.580098L47.1136 0.616765L47.5802 0.703432L47.8869 0.763432L48.2536 0.836765L48.4069 0.870098L48.6569 0.923432L48.7936 0.956765L49.0002 1.0001L49.1402 1.03343L49.3569 1.08343L49.5202 1.12343L49.7569 1.1801L50.0769 1.2601L50.4502 1.3601L50.8269 1.4601L51.2036 1.56677L51.3702 1.61677L51.6036 1.68343L51.8636 1.76343L52.1069 1.8401L52.2736 1.89343L52.4402 1.94677L52.6936 2.0301L53.0236 2.1401L53.3636 2.2601L53.5236 2.31677L53.7369 2.39343L54.0469 2.50676L54.4136 2.64343L54.8002 2.79343L55.1336 2.92677L55.2902 2.99343L55.4902 3.07343L55.6269 3.13343L55.8369 3.2201L55.9702 3.2801L56.1602 3.36343L56.5269 3.52343L56.8602 3.67677L57.1069 3.79343L57.3569 3.91343L57.5569 4.00677L57.8636 4.1601L58.1669 4.3101L58.5069 4.48343L58.6836 4.57677L58.8469 4.66343L59.0002 4.74343L59.2002 4.85343L59.3369 4.92677L59.5102 5.02343L59.8036 5.1901L60.1569 5.3901L60.4469 5.5601L60.6369 5.67343L60.8136 5.7801L61.1336 5.97677L61.4269 6.1601L61.7536 6.36677L61.8736 6.44677L62.0869 6.58343L62.3669 6.7701L62.5002 6.8601L62.7069 7.0001L62.9136 7.14343L62.9902 7.2001C63.1702 7.32343 63.3502 7.4501 63.5269 7.5801L63.8036 7.7801L64.0202 7.9401L64.2069 8.08343L64.4936 8.3001L64.7669 8.51343L64.9002 8.61343L65.0669 8.7501L65.3536 8.9801L65.6169 9.19676L65.9002 9.43343C68.2736 11.4334 70.4102 13.7101 72.2636 16.2034L24.0736 3.31343L24.2802 3.22343L24.4969 3.1301L24.7669 3.01676L25.0536 2.9001C25.4302 2.7501 25.8102 2.6001 26.1902 2.46343L26.5102 2.34677L26.8202 2.23677L27.1002 2.13676L27.4202 2.03343C27.7102 1.93343 28.0069 1.8401 28.3002 1.7501L28.6036 1.6601L28.8902 1.57677L29.2302 1.47677L29.5136 1.4001L29.8469 1.31343L30.1336 1.23343L30.4336 1.15677L30.7369 1.08343L31.0536 1.0101L31.3536 0.943432L31.6802 0.873432L31.9836 0.806765L32.3002 0.746765L32.6069 0.686765L32.9402 0.626765L33.2436 0.573432L33.5702 0.516765L33.8769 0.470098L34.2002 0.420098L34.5069 0.376765L34.8469 0.333432L35.1502 0.293432L35.5002 0.253432L35.8002 0.220098L36.1502 0.186765C36.4602 0.153432 36.7702 0.126765 37.0836 0.106765L37.4369 0.0800985L37.7369 0.0634318L38.1036 0.0434318L38.4136 0.0300985L38.7469 0.0167651L39.0702 0.0100985L39.4002 0.0034318L40.0569 -0.00323486V9.84701e-05Z" fill="black"/>
</g>
<defs>
<clipPath id="clip0_495_12366">
<rect width="80" height="80" fill="white"/>
</clipPath>
</defs>
</svg>
