<svg width="62" height="62" viewBox="0 0 62 62" fill="none" xmlns="http://www.w3.org/2000/svg">
<path d="M45.3357 0.5H16.2643C7.55793 0.5 0.5 7.59339 0.5 16.3435V45.561C0.5 54.3111 7.55793 61.4045 16.2643 61.4045H45.3357C54.0421 61.4045 61.1 54.3111 61.1 45.561V16.3435C61.1 7.59339 54.0421 0.5 45.3357 0.5Z" fill="#F7F7F8" stroke="#E4E4EB"/>
<path d="M37.4222 13.6658C39.5321 13.6658 41.2421 15.3615 41.2421 17.4522V40.3183C41.2567 40.6686 41.4064 40.9995 41.6596 41.2415C41.9128 41.4833 42.2499 41.6174 42.5999 41.6152C42.9493 41.6168 43.2858 41.4827 43.5388 41.2409C43.7916 40.9989 43.9411 40.6682 43.9559 40.3183V26.651C43.9585 26.1561 44.0582 25.6666 44.2496 25.2106C44.441 24.7543 44.72 24.3404 45.071 23.9925C45.422 23.6443 45.838 23.3689 46.295 23.1822C46.7522 22.9953 47.2417 22.9004 47.7353 22.903C48.2293 22.9004 48.7186 22.9953 49.176 23.1822C49.6332 23.3693 50.0492 23.6447 50.4002 23.9931C50.7512 24.3412 51.0302 24.7555 51.2216 25.2118C51.4128 25.668 51.5124 26.1577 51.5148 26.6528V38.6538C51.513 38.9683 51.3866 39.2692 51.1634 39.4904C50.9404 39.7117 50.6388 39.8351 50.325 39.8335C50.1694 39.8345 50.0153 39.8047 49.8713 39.746C49.7271 39.6871 49.5961 39.6005 49.4853 39.491C49.3747 39.3814 49.2866 39.2512 49.2262 39.1074C49.1658 38.9639 49.1342 38.8098 49.1332 38.6538V26.6528C49.1322 26.4697 49.0954 26.2887 49.0246 26.1199C48.9538 25.9513 48.8506 25.7981 48.7208 25.6692C48.591 25.5406 48.4372 25.4387 48.268 25.3696C48.099 25.3004 47.9181 25.2652 47.7353 25.2662C47.5527 25.2652 47.3716 25.3004 47.2026 25.3696C47.0334 25.4387 46.8797 25.5406 46.7499 25.6692C46.6201 25.7981 46.5168 25.9513 46.446 26.1199C46.3752 26.2887 46.3382 26.4697 46.3374 26.6528V40.3201C46.3348 40.8094 46.236 41.2934 46.0466 41.7444C45.8574 42.1955 45.5814 42.6047 45.2344 42.9489C44.8872 43.293 44.476 43.5653 44.024 43.7501C43.5718 43.9348 43.0881 44.0286 42.5999 44.026C42.1117 44.0286 41.6277 43.9348 41.1756 43.7501C40.7236 43.5653 40.3122 43.293 39.9652 42.9489C39.618 42.6047 39.342 42.1955 39.1528 41.7444C38.9636 41.2934 38.8648 40.8094 38.8622 40.3201V17.4558C38.847 17.0843 38.6886 16.7332 38.4204 16.4763C38.1522 16.2194 37.795 16.0767 37.424 16.0785C37.053 16.0763 36.6956 16.2184 36.427 16.4749C36.1584 16.7316 35.9996 17.0825 35.9842 17.454L35.9822 46.5446C35.9764 47.5326 35.5796 48.4777 34.8786 49.1724C34.1778 49.8668 33.2304 50.254 32.2446 50.2487C31.7564 50.2514 31.2726 50.1575 30.8206 49.9728C30.3684 49.788 29.9572 49.5157 29.61 49.1716C29.263 48.8274 28.987 48.4182 28.7978 47.9671C28.6084 47.5161 28.5098 47.0321 28.507 46.5428V43.0053C28.507 42.3541 29.04 41.8254 29.697 41.8254C30.354 41.8254 30.8868 42.3541 30.8868 43.0053V46.5428C30.8868 47.0238 31.146 47.4684 31.5658 47.7099C31.9856 47.9494 32.5038 47.9494 32.9236 47.7099C33.1296 47.5929 33.3008 47.4232 33.4202 47.2182C33.5394 47.0132 33.6024 46.7802 33.6024 46.5428V17.4522C33.6024 15.3615 35.3126 13.6658 37.4222 13.6658ZM27.0672 13.6658C29.1768 13.6658 30.8868 15.3615 30.8868 17.4522V38.5294C30.8862 38.6851 30.8548 38.8393 30.7946 38.983C30.7344 39.1265 30.6466 39.257 30.536 39.3665C30.4254 39.4761 30.2944 39.5627 30.1506 39.6216C30.0066 39.6803 29.8524 39.7101 29.697 39.7093C29.5416 39.7101 29.3874 39.6803 29.2434 39.6216C29.0994 39.5627 28.9684 39.4761 28.858 39.3665C28.7474 39.257 28.6596 39.1265 28.5994 38.983C28.5392 38.8393 28.5078 38.6851 28.507 38.5294V17.4522C28.5046 17.0717 28.3516 16.7076 28.0816 16.4401C27.8116 16.1726 27.4468 16.0234 27.0672 16.0254C26.6876 16.0234 26.3226 16.1726 26.0526 16.4401C25.7826 16.7076 25.6296 17.0717 25.6272 17.4522V43.0839C25.6214 44.0827 25.2202 45.0383 24.512 45.7406C23.8036 46.4431 22.846 46.8349 21.8494 46.8301C20.8528 46.8353 19.8946 46.4437 19.1858 45.7412C18.477 45.0389 18.0756 44.0829 18.07 43.0839V26.6528C18.069 26.4697 18.032 26.2887 17.9612 26.1199C17.8904 25.9513 17.7872 25.7981 17.6574 25.6692C17.5276 25.5406 17.3738 25.4387 17.2046 25.3696C17.0356 25.3004 16.8546 25.2652 16.672 25.2662C16.4894 25.2652 16.3084 25.3004 16.1392 25.3696C15.9702 25.4387 15.8162 25.5406 15.6864 25.6692C15.5566 25.7981 15.4534 25.9513 15.3826 26.1199C15.3118 26.2887 15.275 26.4697 15.274 26.6528V33.6035C15.2714 34.0984 15.1716 34.5878 14.9802 35.0439C14.7888 35.5 14.5096 35.9141 14.1586 36.262C13.8078 36.61 13.3918 36.8853 12.9346 37.0723C12.4776 37.2592 11.9882 37.3541 11.4944 37.3515C11.0008 37.3541 10.5114 37.2592 10.0542 37.0723C9.59705 36.8853 9.18125 36.61 8.83025 36.262C8.47925 35.9141 8.20005 35.5 8.00865 35.0439C7.81745 34.5878 7.71744 34.0984 7.71484 33.6035V31.0829C7.71484 30.4299 8.24785 29.9012 8.90485 29.9012C9.56185 29.9012 10.0964 30.4317 10.0964 31.0829V33.6035C10.0964 34.3681 10.7224 34.9882 11.4944 34.9882C12.2664 34.9882 12.8924 34.3681 12.8924 33.6035V26.651C12.8982 25.6522 13.2994 24.6966 14.0076 23.9943C14.716 23.2918 15.6736 22.9 16.6702 22.9048C17.667 22.8994 18.625 23.2912 19.3338 23.9937C20.0426 24.696 20.444 25.652 20.4498 26.651V43.0839C20.4498 43.8504 21.0756 44.4705 21.8494 44.4705C22.6214 44.4705 23.2474 43.8504 23.2474 43.0839V17.4522C23.2474 15.3615 24.9574 13.6658 27.0672 13.6658Z" fill="url(#paint0_linear_489_12242)"/>
<defs>
<linearGradient id="paint0_linear_489_12242" x1="8.54924" y1="31.9573" x2="51.5148" y2="31.9573" gradientUnits="userSpaceOnUse">
<stop stop-color="#E3187C"/>
<stop offset="1" stop-color="#FE603D"/>
</linearGradient>
</defs>
</svg>
