<svg width="16" height="16" viewBox="0 0 16 16" fill="none" xmlns="http://www.w3.org/2000/svg">
<path d="M11.2597 0.0499878H3.99186C1.81526 0.0499878 0.0507812 1.82334 0.0507812 4.01087V11.3152C0.0507812 13.5028 1.81526 15.2761 3.99186 15.2761H11.2597C13.4363 15.2761 15.2008 13.5028 15.2008 11.3152V4.01087C15.2008 1.82334 13.4363 0.0499878 11.2597 0.0499878Z" fill="#F7F7F8" stroke="#E4E4EB" stroke-width="0.1"/>
<path d="M9.28037 3.34146C9.80782 3.34146 10.2353 3.76538 10.2353 4.28804V10.0046C10.239 10.0922 10.2764 10.1749 10.3397 10.2354C10.403 10.2958 10.4873 10.3294 10.5748 10.3288C10.6621 10.3292 10.7463 10.2957 10.8095 10.2352C10.8727 10.1747 10.9101 10.0921 10.9138 10.0046V6.58774C10.9144 6.46402 10.9394 6.34166 10.9872 6.22764C11.0351 6.11357 11.1048 6.0101 11.1926 5.92312C11.2803 5.83608 11.3843 5.76724 11.4986 5.72056C11.6129 5.67382 11.7352 5.6501 11.8586 5.65076C11.9821 5.6501 12.1045 5.67382 12.2188 5.72056C12.3331 5.76734 12.4371 5.83619 12.5249 5.92327C12.6126 6.01031 12.6824 6.11387 12.7302 6.22794C12.778 6.34201 12.8029 6.46443 12.8035 6.58819V9.58845C12.8031 9.66709 12.7715 9.74231 12.7157 9.79759C12.6599 9.85292 12.5845 9.88377 12.5061 9.88337C12.4672 9.88362 12.4286 9.87618 12.3926 9.86151C12.3566 9.84679 12.3238 9.82513 12.2961 9.79774C12.2685 9.77036 12.2465 9.73779 12.2314 9.70186C12.2163 9.66598 12.2084 9.62744 12.2081 9.58845V6.58819C12.2079 6.54242 12.1987 6.49719 12.181 6.45498C12.1633 6.41282 12.1375 6.37453 12.105 6.34232C12.0726 6.31015 12.0341 6.28468 11.9918 6.26739C11.9496 6.2501 11.9043 6.24131 11.8586 6.24156C11.813 6.24131 11.7677 6.2501 11.7255 6.26739C11.6832 6.28468 11.6447 6.31015 11.6123 6.34232C11.5798 6.37453 11.554 6.41282 11.5363 6.45498C11.5186 6.49719 11.5094 6.54242 11.5092 6.58819V10.005C11.5085 10.1273 11.4838 10.2483 11.4365 10.3611C11.3892 10.4739 11.3202 10.5762 11.2334 10.6622C11.1466 10.7482 11.0438 10.8163 10.9308 10.8625C10.8178 10.9087 10.6968 10.9322 10.5748 10.9315C10.4527 10.9322 10.3317 10.9087 10.2187 10.8625C10.1057 10.8163 10.0029 10.7482 9.91612 10.6622C9.82932 10.5762 9.76032 10.4739 9.71302 10.3611C9.66572 10.2483 9.64102 10.1273 9.64037 10.005V4.28895C9.63657 4.19608 9.59697 4.1083 9.52992 4.04407C9.46287 3.97985 9.37357 3.94418 9.28082 3.94463C9.18807 3.94407 9.09872 3.9796 9.03157 4.04372C8.96442 4.10789 8.92472 4.19563 8.92087 4.2885L8.92037 11.5612C8.91892 11.8081 8.81972 12.0444 8.64447 12.2181C8.46927 12.3917 8.23242 12.4885 7.98597 12.4872C7.86392 12.4878 7.74297 12.4644 7.62997 12.4182C7.51692 12.372 7.41412 12.3039 7.32732 12.2179C7.24057 12.1319 7.17157 12.0296 7.12427 11.9168C7.07692 11.804 7.05227 11.683 7.05157 11.5607V10.6763C7.05157 10.5135 7.18482 10.3814 7.34907 10.3814C7.51332 10.3814 7.64652 10.5135 7.64652 10.6763V11.5607C7.64652 11.681 7.71132 11.7921 7.81627 11.8525C7.92122 11.9124 8.05077 11.9124 8.15572 11.8525C8.20722 11.8232 8.25002 11.7808 8.27987 11.7296C8.30967 11.6783 8.32542 11.6201 8.32542 11.5607V4.28804C8.32542 3.76538 8.75297 3.34146 9.28037 3.34146ZM6.69162 3.34146C7.21902 3.34146 7.64652 3.76538 7.64652 4.28804V9.55734C7.64637 9.59629 7.63852 9.63483 7.62347 9.67076C7.60842 9.70664 7.58647 9.73925 7.55882 9.76664C7.53117 9.79402 7.49842 9.81568 7.46247 9.83041C7.42647 9.84508 7.38792 9.85252 7.34907 9.85232C7.31022 9.85252 7.27167 9.84508 7.23567 9.83041C7.19967 9.81568 7.16692 9.79402 7.13932 9.76664C7.11167 9.73925 7.08972 9.70664 7.07467 9.67076C7.05962 9.63483 7.05177 9.59629 7.05157 9.55734V4.28804C7.05097 4.19292 7.01272 4.10191 6.94522 4.03503C6.87772 3.96814 6.78652 3.93086 6.69162 3.93136C6.59672 3.93086 6.50547 3.96814 6.43797 4.03503C6.37047 4.10191 6.33222 4.19292 6.33162 4.28804V10.696C6.33017 10.9457 6.22987 11.1846 6.05282 11.3602C5.87572 11.5358 5.63632 11.6337 5.38717 11.6325C5.13802 11.6338 4.89847 11.5359 4.72127 11.3603C4.54407 11.1847 4.44372 10.9457 4.44232 10.696V6.58819C4.44207 6.54242 4.43282 6.49719 4.41512 6.45498C4.39742 6.41282 4.37162 6.37453 4.33917 6.34232C4.30672 6.31015 4.26827 6.28468 4.22597 6.26739C4.18372 6.2501 4.13847 6.24131 4.09282 6.24156C4.04717 6.24131 4.00192 6.2501 3.95962 6.26739C3.91737 6.28468 3.87887 6.31015 3.84642 6.34232C3.81397 6.37453 3.78817 6.41282 3.77047 6.45498C3.75277 6.49719 3.74357 6.54242 3.74332 6.58819V8.32588C3.74267 8.4496 3.71772 8.57196 3.66987 8.68598C3.62202 8.8 3.55222 8.90352 3.46447 8.99051C3.37677 9.07749 3.27277 9.14634 3.15847 9.19307C3.04422 9.2398 2.92187 9.26352 2.79842 9.26287C2.67502 9.26352 2.55267 9.2398 2.43837 9.19307C2.32407 9.14634 2.22012 9.07749 2.13237 8.99051C2.04462 8.90352 1.97482 8.8 1.92697 8.68598C1.87917 8.57196 1.85417 8.4496 1.85352 8.32588V7.69573C1.85352 7.53247 1.98677 7.40031 2.15102 7.40031C2.31527 7.40031 2.44892 7.53292 2.44892 7.69573V8.32588C2.44892 8.51704 2.60542 8.67206 2.79842 8.67206C2.99142 8.67206 3.14792 8.51704 3.14792 8.32588V6.58774C3.14937 6.33804 3.24967 6.09915 3.42672 5.92357C3.60382 5.74794 3.84322 5.65 4.09237 5.65121C4.34157 5.64985 4.58107 5.74779 4.75827 5.92342C4.93547 6.099 5.03582 6.33799 5.03727 6.58774V10.696C5.03727 10.8876 5.19372 11.0426 5.38717 11.0426C5.58017 11.0426 5.73667 10.8876 5.73667 10.696V4.28804C5.73667 3.76538 6.16417 3.34146 6.69162 3.34146Z" fill="url(#paint0_linear_489_12263)"/>
<defs>
<linearGradient id="paint0_linear_489_12263" x1="2.06212" y1="7.91433" x2="12.8035" y2="7.91433" gradientUnits="userSpaceOnUse">
<stop stop-color="#E3187C"/>
<stop offset="1" stop-color="#FE603D"/>
</linearGradient>
</defs>
</svg>
