<svg width="20" height="20" viewBox="0 0 20 20" fill="none" xmlns="http://www.w3.org/2000/svg">
<rect width="20" height="20" rx="10" fill="white"/>
<path d="M11.9652 9.58811C12.2383 9.58811 12.5055 9.58811 12.7887 9.58811C12.7786 9.51173 12.7763 9.43838 12.7579 9.36933C12.7375 9.29301 12.6725 9.26175 12.5975 9.2582C12.5182 9.25445 12.4387 9.25569 12.3593 9.25562C12.0783 9.25539 11.7974 9.25553 11.5164 9.25553C11.4956 9.25553 11.4748 9.25553 11.4506 9.25553C11.4506 9.11144 11.4506 8.97301 11.4506 8.82891C11.4729 8.82891 11.4917 8.82891 11.5106 8.82891C11.8729 8.82891 12.2352 8.82823 12.5975 8.82956C12.6612 8.82979 12.7257 8.83347 12.7884 8.84412C13.0599 8.89022 13.1905 9.02987 13.2198 9.30405C13.2278 9.37895 13.2318 9.45461 13.232 9.52994C13.2332 9.93877 13.2326 10.3476 13.2326 10.7564C13.2326 10.7773 13.2326 10.7982 13.2326 10.8253C13.2069 10.8253 13.1862 10.8253 13.1655 10.8253C12.745 10.8253 12.3246 10.8262 11.9041 10.8243C11.8349 10.824 11.7648 10.8166 11.6967 10.8038C11.5132 10.7691 11.4033 10.6538 11.3635 10.4746C11.327 10.3104 11.3261 10.1431 11.3558 9.97811C11.4027 9.71837 11.5587 9.59387 11.8316 9.58819C11.8742 9.5873 11.9168 9.58809 11.9652 9.58811ZM11.8485 10.016C11.7698 10.0905 11.7823 10.1855 11.7968 10.2766C11.8103 10.3617 11.8595 10.3949 11.9487 10.3949C12.2079 10.3951 12.4671 10.3951 12.7263 10.3949C12.7431 10.3949 12.7599 10.3931 12.7773 10.3921C12.7773 10.2574 12.7773 10.127 12.7773 9.99615C12.7684 9.99423 12.763 9.99205 12.7575 9.99204C12.4809 9.99182 12.2043 9.99132 11.9278 9.99258C11.9038 9.99269 11.88 10.0046 11.8485 10.016Z" fill="#0273BC"/>
<path d="M16.9866 10.4433C16.9866 10.5711 16.9866 10.6931 16.9866 10.8252C16.964 10.8252 16.9438 10.8252 16.9236 10.8252C16.4994 10.8252 16.0751 10.8261 15.6509 10.8243C15.5836 10.824 15.5155 10.8161 15.4494 10.8034C15.2687 10.7687 15.1592 10.6556 15.1187 10.4788C15.0806 10.3128 15.0801 10.1435 15.1099 9.97681C15.1565 9.7162 15.3182 9.58925 15.5924 9.58825C15.883 9.5872 16.1736 9.58803 16.4642 9.58804C16.4854 9.58804 16.5066 9.58804 16.5401 9.58804C16.5331 9.51746 16.5326 9.44975 16.5184 9.38504C16.501 9.3055 16.4405 9.26214 16.3516 9.25812C16.2665 9.25427 16.1811 9.25564 16.0959 9.25557C15.8208 9.25533 15.5457 9.25548 15.2707 9.25548C15.2496 9.25548 15.2286 9.25548 15.2036 9.25548C15.2036 9.11305 15.2036 8.97481 15.2036 8.83228C15.2207 8.83112 15.2374 8.829 15.2542 8.82899C15.6223 8.8288 15.9904 8.82756 16.3584 8.82988C16.4354 8.83036 16.5133 8.83867 16.589 8.85277C16.7985 8.89178 16.9225 9.01882 16.9625 9.23631C16.9771 9.31584 16.9849 9.39768 16.9855 9.47855C16.9881 9.79818 16.9866 10.1178 16.9866 10.4433ZM16.5024 9.99167C16.2336 9.99166 15.9648 9.99141 15.696 9.99179C15.615 9.99191 15.5723 10.0202 15.5547 10.0928C15.5449 10.1333 15.5405 10.177 15.5437 10.2185C15.5548 10.3613 15.5937 10.395 15.7369 10.395C15.9805 10.395 16.2242 10.395 16.4679 10.395C16.4885 10.395 16.5092 10.395 16.5346 10.395C16.5346 10.2635 16.535 10.1382 16.5337 10.013C16.5337 10.0059 16.5205 9.9989 16.5024 9.99167Z" fill="#0273BC"/>
<path d="M3.2558 10.8252C3.17837 10.8252 3.10676 10.8252 3.02504 10.8252C3.02504 10.8027 3.02504 10.7825 3.02504 10.7623C3.02504 10.2992 3.02402 9.83622 3.02601 9.37321C3.02635 9.29238 3.03281 9.21036 3.04793 9.13108C3.07604 8.98376 3.14652 8.86376 3.30399 8.82538C3.47208 8.7844 3.6287 8.80585 3.75064 8.94242C3.78889 8.98525 3.82209 9.03446 3.84891 9.08534C4.0634 9.49228 4.27572 9.90037 4.48906 10.3079C4.50014 10.3291 4.51438 10.3486 4.52715 10.3688C4.53222 10.3675 4.53729 10.3662 4.54236 10.3649C4.54236 9.85493 4.54236 9.34496 4.54236 8.83196C4.69497 8.83196 4.8396 8.83196 4.99141 8.83196C4.99254 8.85148 4.99474 8.87176 4.99474 8.89204C4.99493 9.36475 4.9956 9.83747 4.99407 10.3102C4.99385 10.3775 4.98718 10.4456 4.97586 10.5121C4.93567 10.7478 4.77713 10.8651 4.53832 10.8443C4.38036 10.8306 4.27073 10.745 4.19789 10.6131C4.05586 10.3559 3.91898 10.0959 3.78209 9.83592C3.69383 9.66832 3.60947 9.49866 3.52289 9.33017C3.51474 9.31431 3.50315 9.30021 3.49316 9.28529C3.48813 9.28679 3.4831 9.28829 3.47807 9.28979C3.47807 9.79886 3.47807 10.3079 3.47807 10.8252C3.40336 10.8252 3.33249 10.8252 3.2558 10.8252Z" fill="#0273BC"/>
<path d="M9.80228 8.82886C10.0831 8.83139 10.3587 8.82345 10.633 8.8391C10.9752 8.85862 11.1471 9.03615 11.16 9.3807C11.1711 9.67847 11.1691 9.9772 11.1595 10.2751C11.1538 10.4508 11.1012 10.616 10.9436 10.7237C10.8251 10.8048 10.688 10.8232 10.55 10.8241C10.1392 10.8269 9.72835 10.8249 9.31754 10.8247C9.31377 10.8247 9.31 10.8232 9.30103 10.8213C9.30103 10.1595 9.30103 9.49654 9.30103 8.82886C9.46777 8.82886 9.63212 8.82886 9.80228 8.82886ZM10.3197 10.3968C10.3759 10.3968 10.4321 10.3975 10.4883 10.3966C10.6217 10.3946 10.6941 10.3343 10.6974 10.2003C10.7034 9.95262 10.7037 9.70461 10.6975 9.45697C10.694 9.31687 10.6213 9.25765 10.48 9.25736C10.2532 9.25689 10.0265 9.25718 9.79983 9.25735C9.78482 9.25736 9.76981 9.25902 9.75282 9.26003C9.75282 9.63967 9.75282 10.0166 9.75282 10.3968C9.94022 10.3968 10.1242 10.3968 10.3197 10.3968Z" fill="#0273BC"/>
<path d="M14.4135 10.7101C14.4135 10.7502 14.4135 10.7846 14.4135 10.8221C14.261 10.8221 14.1145 10.8221 13.9617 10.8221C13.9617 10.3022 13.9617 9.78226 13.9617 9.25432C13.7459 9.25432 13.5363 9.25432 13.3229 9.25432C13.3229 9.10992 13.3229 8.97348 13.3229 8.83289C13.8976 8.83289 14.4715 8.83289 15.0492 8.83289C15.0492 8.97013 15.0492 9.10671 15.0492 9.24925C14.8403 9.24925 14.632 9.24925 14.4135 9.24925C14.4135 9.73818 14.4135 10.2213 14.4135 10.7101Z" fill="#0374BC"/>
<path d="M8.11108 10.2806C8.11108 10.4641 8.11108 10.6418 8.11108 10.8224C7.95615 10.8224 7.80807 10.8224 7.65415 10.8224C7.65415 10.3 7.65415 9.78 7.65415 9.25342C7.44053 9.25342 7.2326 9.25342 7.02075 9.25342C7.02075 9.11041 7.02075 8.97401 7.02075 8.83325C7.59556 8.83325 8.16933 8.83325 8.74692 8.83325C8.74692 8.97039 8.74692 9.10696 8.74692 9.24951C8.5377 9.24951 8.32947 9.24951 8.11108 9.24951C8.11108 9.59517 8.11108 9.93498 8.11108 10.2806Z" fill="#0273BC"/>
<path d="M6.23914 9.62938C6.23914 10.0298 6.23914 10.4245 6.23914 10.8222C6.08429 10.8222 5.93622 10.8222 5.78223 10.8222C5.78223 10.3002 5.78223 9.7802 5.78223 9.2528C5.56671 9.2528 5.35696 9.2528 5.14429 9.2528C5.14429 9.1089 5.14429 8.97244 5.14429 8.8324C5.72055 8.8324 6.29451 8.8324 6.87126 8.8324C6.87126 8.97196 6.87126 9.10874 6.87126 9.25032C6.66291 9.25032 6.4562 9.25032 6.23914 9.25032C6.23914 9.37773 6.23914 9.50065 6.23914 9.62938Z" fill="#0474BC"/>
<path d="M11.8523 10.0135C11.88 10.0045 11.9039 9.99263 11.9278 9.99252C12.2044 9.99126 12.481 9.99177 12.7576 9.99199C12.763 9.99199 12.7684 9.99418 12.7774 9.99609C12.7774 10.1269 12.7774 10.2574 12.7774 10.392C12.7599 10.393 12.7431 10.3948 12.7263 10.3949C12.4671 10.395 12.208 10.3951 11.9488 10.3949C11.8596 10.3948 11.8104 10.3617 11.7968 10.2765C11.7823 10.1854 11.7699 10.0905 11.8523 10.0135Z" fill="#FBFDFE"/>
<path d="M16.5079 9.99175C16.5205 9.99889 16.5337 10.0059 16.5338 10.013C16.535 10.1382 16.5347 10.2635 16.5347 10.3949C16.5092 10.3949 16.4886 10.3949 16.4679 10.3949C16.2242 10.3949 15.9806 10.3949 15.7369 10.3949C15.5937 10.3949 15.5548 10.3613 15.5438 10.2185C15.5406 10.177 15.5449 10.1333 15.5547 10.0928C15.5724 10.0202 15.615 9.9919 15.696 9.99178C15.9648 9.9914 16.2336 9.99165 16.5079 9.99175Z" fill="#FBFDFE"/>
<path d="M10.3139 10.3968C10.1241 10.3968 9.9402 10.3968 9.75281 10.3968C9.75281 10.0165 9.75281 9.63965 9.75281 9.26C9.76979 9.25899 9.7848 9.25733 9.79981 9.25732C10.0265 9.25716 10.2532 9.25687 10.4799 9.25733C10.6213 9.25762 10.694 9.31685 10.6975 9.45694C10.7037 9.70458 10.7034 9.95259 10.6974 10.2002C10.6941 10.3343 10.6217 10.3946 10.4883 10.3966C10.4321 10.3975 10.3759 10.3968 10.3139 10.3968Z" fill="#FDFEFE"/>
</svg>