<svg width="80" height="80" viewBox="0 0 80 80" fill="none" xmlns="http://www.w3.org/2000/svg">
  <g clip-path="url(#clip0_1500_13147)">
    <path fill-rule="evenodd" clip-rule="evenodd" d="M42.1976 1.23695C43.6267 3.74602 45.0485 6.26236 46.4666 8.78234C46.524 8.88311 46.607 8.96686 46.7073 9.025C46.8076 9.08314 46.9216 9.11359 47.0375 9.11324H67.2264C67.8591 9.11324 68.3973 9.51324 68.8482 10.3023L74.1354 19.6477C74.8263 20.8731 75.0081 21.3859 74.2226 22.6913C73.2772 24.2549 72.3572 25.8331 71.459 27.4185L70.1245 29.8112C69.7391 30.524 69.3136 30.8294 69.9791 31.673L79.6226 48.5347C80.248 49.6292 80.0262 50.331 79.4662 51.3347C77.8771 54.1892 76.259 57.0219 74.6117 59.8437C74.0336 60.8328 73.3317 61.2073 72.139 61.1891C69.3136 61.1309 66.4955 61.1528 63.6773 61.2473C63.6169 61.2504 63.5582 61.2687 63.5068 61.3005C63.4553 61.3323 63.4126 61.3765 63.3828 61.4291C60.1313 67.19 56.8525 72.9355 53.5465 78.6653C52.932 79.7308 52.1647 79.9853 50.9102 79.9889C47.2848 79.9999 43.6303 80.0035 39.9394 79.9962C39.5958 79.9953 39.2585 79.9037 38.9616 79.7306C38.6647 79.5576 38.4188 79.3093 38.2486 79.0108L33.3941 70.5636C33.3658 70.5083 33.3225 70.4622 33.269 70.4307C33.2156 70.3991 33.1543 70.3834 33.0923 70.3854H14.4816C13.4452 70.4945 12.4707 70.3818 11.5544 70.0509L5.72534 59.9782C5.55295 59.68 5.46158 59.3419 5.4603 58.9974C5.45903 58.6529 5.54789 58.3141 5.71807 58.0146L10.1071 50.3056C10.1696 50.1966 10.2025 50.0731 10.2025 49.9474C10.2025 49.8217 10.1696 49.6982 10.1071 49.5892C7.82084 45.631 5.54812 41.6649 3.28901 37.6912L0.416314 32.6185C-0.165496 31.4912 -0.212769 30.8149 0.761765 29.1094C2.45265 26.1531 4.13263 23.2004 5.80534 20.2513C6.28533 19.4004 6.91078 19.0368 7.92895 19.0332C11.0671 19.0199 14.2052 19.0187 17.3434 19.0295C17.4226 19.0289 17.5003 19.0074 17.5687 18.9672C17.637 18.927 17.6935 18.8694 17.7325 18.8004L27.936 1.00059C28.0906 0.729806 28.3139 0.504549 28.5832 0.347508C28.8526 0.190466 29.1587 0.107186 29.4705 0.106055C31.3759 0.102419 33.2995 0.106055 35.2268 0.0842367L38.9249 0.000601152C40.1649 -0.0103078 41.5576 0.116964 42.1976 1.23695ZM29.7178 2.70239C29.6794 2.70237 29.6418 2.71244 29.6086 2.73159C29.5754 2.75074 29.5478 2.7783 29.5287 2.81148L19.107 21.0477C19.0569 21.1336 18.9853 21.205 18.8992 21.2547C18.8131 21.3045 18.7155 21.3309 18.6161 21.3313H8.1944C7.99076 21.3313 7.93985 21.4222 8.04531 21.6004L29.1723 58.531C29.2632 58.6837 29.2196 58.7564 29.0487 58.7601L18.8852 58.8146C18.7366 58.8096 18.5896 58.8466 18.461 58.9212C18.3324 58.9957 18.2274 59.105 18.1579 59.2364L13.358 67.6363C13.198 67.92 13.2816 68.0654 13.6052 68.0654L34.3904 68.0945C34.5577 68.0945 34.6813 68.1672 34.7686 68.3163L39.8704 77.2399C40.0376 77.5344 40.2049 77.5381 40.3758 77.2399L58.5792 45.3856L61.4264 40.3602C61.4438 40.3292 61.4691 40.3033 61.4998 40.2853C61.5305 40.2673 61.5654 40.2579 61.601 40.2579C61.6366 40.2579 61.6715 40.2673 61.7022 40.2853C61.7328 40.3033 61.7582 40.3292 61.7755 40.3602L66.9537 49.5601C66.9925 49.629 67.0491 49.6862 67.1175 49.7258C67.1859 49.7655 67.2637 49.7861 67.3427 49.7856L77.3899 49.7129C77.4156 49.7131 77.441 49.7065 77.4633 49.6937C77.4857 49.6809 77.5043 49.6624 77.5171 49.6401C77.5296 49.6179 77.5361 49.5929 77.5361 49.5674C77.5361 49.5419 77.5296 49.5169 77.5171 49.4947L66.9718 31.0003C66.9339 30.9385 66.9138 30.8674 66.9138 30.7949C66.9138 30.7223 66.9339 30.6512 66.9718 30.5894L68.0373 28.7458L72.1099 21.5568C72.1972 21.4077 72.1536 21.3313 71.9827 21.3313H29.8196C29.605 21.3313 29.5541 21.2368 29.6632 21.0513L34.8777 11.9423C34.9168 11.8802 34.9375 11.8084 34.9375 11.735C34.9375 11.6617 34.9168 11.5898 34.8777 11.5278L29.9105 2.81512C29.8915 2.78072 29.8636 2.75208 29.8296 2.73224C29.7957 2.7124 29.7571 2.70208 29.7178 2.70239ZM52.5902 31.8658C52.7575 31.8658 52.8011 31.9385 52.7138 32.0839L49.6884 37.4112L40.1867 54.0837C40.1689 54.1162 40.1425 54.1431 40.1105 54.1617C40.0784 54.1803 40.0419 54.1898 40.0049 54.1892C39.968 54.189 39.9318 54.1792 39.8999 54.1607C39.868 54.1422 39.8415 54.1157 39.8231 54.0837L27.2669 32.1494C27.1942 32.0258 27.2305 31.9603 27.3687 31.953L28.1541 31.9094L52.5975 31.8658H52.5902Z" fill="var(--vscode-inputOption-activeForeground, #000000)" />
  </g>
  <defs>
    <clipPath id="clip0_1500_13147">
      <rect width="80" height="80" fill="#FFFFFF" />
    </clipPath>
  </defs>
</svg>