<svg width="20" height="20" viewBox="0 0 20 20" fill="none" xmlns="http://www.w3.org/2000/svg">
<rect width="20" height="20" rx="10" fill="white"/>
<path d="M10.3846 3.21647C10.6347 3.65555 10.8835 4.09591 11.1317 4.53691C11.1417 4.55454 11.1562 4.5692 11.1738 4.57937C11.1913 4.58955 11.2113 4.59488 11.2316 4.59482H14.7646C14.8753 4.59482 14.9695 4.66482 15.0484 4.80291L15.9737 6.43835C16.0946 6.6528 16.1264 6.74252 15.989 6.97098C15.8235 7.24461 15.6625 7.52079 15.5053 7.79824L15.2718 8.21697C15.2043 8.34169 15.1299 8.39515 15.2463 8.54278L16.934 11.4936C17.0434 11.6851 17.0046 11.8079 16.9066 11.9836C16.6285 12.4831 16.3453 12.9788 16.0571 13.4726C15.9559 13.6457 15.8331 13.7113 15.6243 13.7081C15.1299 13.6979 14.6367 13.7017 14.1435 13.7183C14.133 13.7188 14.1227 13.722 14.1137 13.7276C14.1047 13.7331 14.0972 13.7409 14.092 13.7501C13.523 14.7583 12.9492 15.7637 12.3706 16.7664C12.2631 16.9529 12.1288 16.9974 11.9093 16.9981C11.2748 17 10.6353 17.0006 9.9894 16.9993C9.92927 16.9992 9.87024 16.9831 9.81829 16.9529C9.76633 16.9226 9.72329 16.8791 9.6935 16.8269L8.84396 15.3486C8.83902 15.339 8.83143 15.3309 8.82208 15.3254C8.81273 15.3198 8.802 15.3171 8.79115 15.3174H5.53428C5.35292 15.3365 5.18237 15.3168 5.02201 15.2589L4.00193 13.4962C3.97177 13.444 3.95578 13.3848 3.95555 13.3245C3.95533 13.2643 3.97088 13.205 4.00066 13.1526L4.76874 11.8035C4.77968 11.7844 4.78544 11.7628 4.78544 11.7408C4.78544 11.7188 4.77968 11.6972 4.76874 11.6781C4.36865 10.9854 3.97092 10.2914 3.57558 9.59595L3.07286 8.70823C2.97104 8.51096 2.96277 8.3926 3.13331 8.09415C3.42921 7.57679 3.72321 7.06007 4.01593 6.54398C4.09993 6.39507 4.20939 6.33144 4.38757 6.3308C4.93674 6.32849 5.48592 6.32828 6.03509 6.33016C6.04896 6.33006 6.06256 6.32629 6.07451 6.31926C6.08647 6.31222 6.09636 6.30215 6.10318 6.29007L7.88879 3.1751C7.91585 3.12772 7.95492 3.0883 8.00207 3.06081C8.04921 3.03333 8.10277 3.01876 8.15734 3.01856C8.49079 3.01792 8.82742 3.01856 9.16469 3.01474L9.81186 3.00011C10.0289 2.9982 10.2726 3.02047 10.3846 3.21647ZM8.20061 3.47292C8.1939 3.47291 8.18731 3.47468 8.1815 3.47803C8.17569 3.48138 8.17087 3.4862 8.16752 3.49201L6.34372 6.68334C6.33497 6.69838 6.32243 6.71087 6.30737 6.71958C6.2923 6.72829 6.27522 6.7329 6.25781 6.73298H4.43402C4.39838 6.73298 4.38947 6.74889 4.40793 6.78007L8.10515 13.2429C8.12106 13.2696 8.11343 13.2824 8.08352 13.283L6.3049 13.2926C6.2789 13.2917 6.25318 13.2981 6.23068 13.3112C6.20817 13.3243 6.18979 13.3434 6.17763 13.3664L5.33764 14.8364C5.30964 14.886 5.32428 14.9114 5.38092 14.9114L9.01832 14.9165C9.0476 14.9165 9.06923 14.9293 9.08451 14.9554L9.97731 16.517C10.0066 16.5685 10.0359 16.5692 10.0658 16.517L13.2514 10.9425L13.7496 10.063C13.7527 10.0576 13.7571 10.0531 13.7625 10.0499C13.7678 10.0468 13.7739 10.0451 13.7802 10.0451C13.7864 10.0451 13.7925 10.0468 13.7979 10.0499C13.8032 10.0531 13.8077 10.0576 13.8107 10.063L14.7169 11.673C14.7237 11.6851 14.7336 11.6951 14.7456 11.702C14.7575 11.709 14.7711 11.7126 14.785 11.7125L16.5432 11.6997C16.5477 11.6998 16.5522 11.6986 16.5561 11.6964C16.56 11.6942 16.5632 11.6909 16.5655 11.687C16.5677 11.6831 16.5688 11.6788 16.5688 11.6743C16.5688 11.6698 16.5677 11.6655 16.5655 11.6616L14.7201 8.42505C14.7134 8.41424 14.7099 8.40179 14.7099 8.3891C14.7099 8.37641 14.7134 8.36396 14.7201 8.35315L14.9065 8.03051L15.6192 6.77243C15.6345 6.74634 15.6269 6.73298 15.597 6.73298H8.21843C8.18088 6.73298 8.17197 6.71643 8.19106 6.68398L9.1036 5.0899C9.11043 5.07904 9.11406 5.06647 9.11406 5.05363C9.11406 5.0408 9.11043 5.02822 9.1036 5.01736L8.23433 3.49265C8.23101 3.48663 8.22612 3.48161 8.22019 3.47814C8.21425 3.47467 8.20749 3.47286 8.20061 3.47292ZM12.2033 8.57651C12.2326 8.57651 12.2402 8.58923 12.2249 8.61469L11.6955 9.54695L10.0327 12.4647C10.0296 12.4703 10.0249 12.475 10.0193 12.4783C10.0137 12.4816 10.0073 12.4832 10.0009 12.4831C9.9944 12.4831 9.98807 12.4814 9.98249 12.4781C9.9769 12.4749 9.97227 12.4702 9.96904 12.4647L7.7717 8.62614C7.75898 8.60451 7.76534 8.59305 7.78952 8.59178L7.92697 8.58414L12.2046 8.57651H12.2033Z" fill="url(#paint0_linear_1504_13163)"/>
<defs>
<linearGradient id="paint0_linear_1504_13163" x1="3" y1="3" x2="1403" y2="3" gradientUnits="userSpaceOnUse">
<stop stop-color="#00055F" stop-opacity="0.84"/>
<stop offset="1" stop-color="#6F69F7" stop-opacity="0.84"/>
</linearGradient>
</defs>
</svg>
