<svg width="100" height="100" viewBox="0 0 100 100" fill="none" xmlns="http://www.w3.org/2000/svg">
<path fill-rule="evenodd" clip-rule="evenodd" d="M61.1106 8.33186C70.9789 8.33186 79.111 15.6914 80.3667 25.2175C88.3365 26.4646 94.441 33.3442 94.4425 41.6637C94.4425 50.8676 86.9825 58.3313 77.7788 58.3319H61.1151V84.7212L61.0929 85.1474C60.8792 87.2474 59.103 88.8837 56.9469 88.885H9.72567L9.29954 88.8672C7.33805 88.6688 5.77939 87.1085 5.57972 85.1474L5.55753 84.7212V48.6106C5.55853 46.4535 7.19834 44.6774 9.29954 44.4647L9.72567 44.4425H25.4883C25.1722 43.1045 25 41.7088 25 40.2743C25.0018 30.4995 32.7772 22.5576 42.476 22.2479C44.8591 14.2054 52.2941 8.33208 61.1106 8.33186ZM18.1197 53.0229C17.5766 52.4801 16.6993 52.48 16.1577 53.0229L14.1912 54.9849C13.6486 55.5279 13.6485 56.4098 14.1912 56.9514L23.908 66.6682L14.1912 76.3849C13.6503 76.9264 13.6498 77.8044 14.1912 78.347L16.1577 80.309C16.6993 80.852 17.5766 80.852 18.1197 80.309L30.7839 67.6492C31.0549 67.3781 31.1918 67.0229 31.1923 66.6682C31.1924 66.4903 31.1581 66.3118 31.0902 66.1444C31.0223 65.9769 30.92 65.8184 30.7839 65.6827L18.1197 53.0229ZM34.7212 75C33.9546 75.0006 33.3319 75.6227 33.3319 76.3894V79.1682C33.3326 79.9342 33.9551 80.557 34.7212 80.5575H51.3894C52.1558 80.5573 52.778 79.9344 52.7788 79.1682V76.3894C52.7788 75.6225 52.1563 75.0003 51.3894 75H34.7212ZM61.1106 12.8773C54.3661 12.8775 48.6631 17.3699 46.835 23.5396L45.9029 26.6868L42.6181 26.7933C35.3562 27.0263 29.5473 32.9707 29.5455 40.2743C29.5455 41.729 29.7814 43.1295 30.2069 44.4425H47.2257V53.7864H77.7788C84.4721 53.7859 89.897 48.3572 89.897 41.6637C89.8956 35.6272 85.4667 30.6175 79.6653 29.7097L76.305 29.1859L75.8611 25.8123C74.899 18.5097 68.661 12.8773 61.1106 12.8773Z" fill="#868686"/>
<path d="M55.5556 20.8333H66.6667V31.9444H55.5556V20.8333Z" fill="#868686"/>
<path d="M61.1111 44.4444H55.5556V50H61.1111V44.4444Z" fill="#868686"/>
<path d="M47.2222 31.9444H55.5556V40.2778H47.2222V31.9444Z" fill="#868686"/>
</svg>
