<svg width="20" height="20" viewBox="0 0 21 21" fill="none" xmlns="http://www.w3.org/2000/svg">
  <!-- Kimi_fw (bottom-right) -->
  <svg x="5" y="5" width="16" height="16" viewBox="0 0 16 16">
    <path d="M11.8843 0.0649414H3.47911C1.59432 0.0649414 0.0664062 1.60054 0.0664062 3.49479V11.9312C0.0664062 13.8254 1.59432 15.361 3.47911 15.361H11.8843C13.769 15.361 15.297 13.8254 15.297 11.9312V3.49479C15.297 1.60054 13.769 0.0649414 11.8843 0.0649414Z" fill="#F7F7F8" stroke="#E4E4EB" stroke-width="0.12989"/>
    <path d="M12.2747 7.44714C12.0757 7.39453 11.8765 7.34262 11.6777 7.2892C10.5905 6.99734 9.50324 6.70513 8.41599 6.41297C7.39839 6.13956 6.38089 5.86619 5.36339 5.59277C4.86114 5.4579 4.35889 5.32297 3.85674 5.188C3.85249 5.18679 3.84844 5.18498 3.83984 5.18192C3.84829 5.1683 3.85524 5.15549 3.86354 5.14363C4.25684 4.58468 4.74789 4.13297 5.33794 3.79051C5.35734 3.77925 5.38959 3.78126 5.41309 3.7875C5.84594 3.90257 6.27839 4.0193 6.71099 4.13554C7.70094 4.40152 8.69079 4.6674 9.68074 4.93343C9.68779 4.93534 9.69464 4.93775 9.70144 4.93986C9.48754 5.15905 9.27469 5.37704 9.05274 5.60428C9.14309 5.6289 9.21759 5.6494 9.29224 5.66946C10.2037 5.91438 11.1152 6.15961 12.0271 6.40327C12.0662 6.41373 12.0827 6.43267 12.0935 6.46996C12.1788 6.76363 12.2392 7.06192 12.2667 7.36674C12.2677 7.37855 12.2719 7.39006 12.2746 7.40167V7.44704L12.2747 7.44714Z" fill="black"/>
    <path d="M3.02344 7.61062C3.02814 7.56615 3.03284 7.52163 3.03824 7.47083C4.49604 7.86248 5.95119 8.25349 7.40519 8.64409C7.34484 8.90419 7.28529 9.16078 7.22459 9.42248C8.61969 9.79736 10.0066 10.1701 11.399 10.5443C11.374 10.5781 11.3523 10.6085 11.3295 10.6381C11.1459 10.8769 10.9422 11.0968 10.7165 11.296C10.6986 11.3119 10.6839 11.32 10.6573 11.3129C9.37874 10.9682 8.09989 10.6245 6.82109 10.2809C5.72664 9.9868 4.63214 9.69268 3.53759 9.39856C3.46209 9.37821 3.38619 9.35947 3.31159 9.33615C3.29399 9.33062 3.27284 9.31263 3.26704 9.2957C3.13199 8.89897 3.05324 8.49108 3.03119 8.07218C3.03029 8.05434 3.02604 8.03676 3.02344 8.01897C3.02344 7.88289 3.02344 7.74681 3.02344 7.61073V7.61062Z" fill="black"/>
    <path d="M7.46204 12.4556C7.36629 12.447 7.27044 12.4395 7.17479 12.4297C6.61074 12.372 6.07464 12.2164 5.57029 11.9568C4.61894 11.467 3.91444 10.7354 3.45624 9.76494C3.44929 9.75032 3.44314 9.73534 3.43359 9.71368C3.54679 9.74404 3.65374 9.77283 3.76079 9.80157C4.85959 10.0967 5.95839 10.3921 7.05754 10.6858C7.09919 10.697 7.10949 10.7139 7.11019 10.7559C7.11409 10.9871 7.12249 11.2182 7.12824 11.4494C7.12899 11.4782 7.13874 11.4902 7.16774 11.498C7.88364 11.6893 8.59904 11.8819 9.31464 12.0743C9.34789 12.0833 9.38104 12.0927 9.41609 12.1107C9.32704 12.1437 9.23859 12.1789 9.14874 12.2093C8.74609 12.3459 8.33294 12.4277 7.90809 12.4485C7.89484 12.4491 7.88179 12.4531 7.86864 12.4555H7.46214L7.46204 12.4556Z" fill="black"/>
    <path d="M7.86699 3.1655C7.92504 3.17102 7.98314 3.17721 8.04129 3.18193C8.70924 3.23645 9.33569 3.42841 9.92004 3.7569C10.4831 4.07344 10.959 4.49148 11.35 5.00705C11.3555 5.01424 11.3609 5.02148 11.3661 5.02891C11.3677 5.03128 11.3684 5.03434 11.3727 5.04469C9.51904 4.54675 7.67034 4.05022 5.80859 3.55007C5.86764 3.5255 5.91524 3.50454 5.96369 3.48565C6.38389 3.32183 6.81779 3.217 7.26789 3.18228C7.32614 3.17776 7.38424 3.17112 7.44239 3.1655C7.58394 3.1655 7.72544 3.1655 7.86699 3.1655Z" fill="black"/>
    <path d="M12.2185 8.60961C12.1635 8.92635 12.0788 9.22886 11.961 9.52489C8.99746 8.72871 6.03646 7.93328 3.06641 7.13539C3.09776 6.98509 3.12451 6.83685 3.15991 6.69057C3.25966 6.27881 3.41621 5.88941 3.62366 5.52047C3.64201 5.4879 3.65721 5.47725 3.69631 5.4879C4.61046 5.73509 5.52506 5.98077 6.43961 6.22645C7.02461 6.38358 7.60976 6.54042 8.19476 6.6975C8.21356 6.70258 8.23196 6.70891 8.24726 6.71373C8.11871 6.95358 7.99081 7.19237 7.85906 7.4382C9.31766 7.83021 10.7658 8.21931 12.2185 8.60971V8.60961Z" fill="black"/>
  </svg>
  <!-- Fireworks (top-left, on top) -->
  <svg x="0" y="0" width="10" height="10" viewBox="0 0 10 10">
    <path d="M4.72578 9.44697C7.30771 9.44697 9.40078 7.34339 9.40078 4.74848C9.40078 2.15357 7.30771 0.0499878 4.72578 0.0499878C2.14385 0.0499878 0.0507812 2.15357 0.0507812 4.74848C0.0507812 7.34339 2.14385 9.44697 4.72578 9.44697Z" fill="white" stroke="#E4E4EB" stroke-width="0.1"/>
    <path fill-rule="evenodd" clip-rule="evenodd" d="M5.49232 2.18625L4.67314 4.1694L3.85322 2.18625H3.32722L4.22591 4.35417C4.30045 4.53505 4.47527 4.65189 4.67007 4.65189C4.86487 4.65189 5.03932 4.53505 5.11422 4.35494L6.01832 2.18625H5.49232ZM5.84232 5.20777L7.34077 3.6772L7.13637 3.19005L5.49962 4.865C5.36282 5.00511 5.32362 5.21164 5.39932 5.3925C5.47462 5.57184 5.64867 5.68792 5.84272 5.68792L5.84347 5.68868L8.18297 5.68285L7.97857 5.19571L5.84272 5.20777H5.84232ZM2.00627 3.67604L2.21068 3.18889L3.84745 4.86383C3.98424 5.00355 4.02381 5.21084 3.94774 5.39134C3.87243 5.57109 3.69761 5.68677 3.50435 5.68677L1.16483 5.68129L1.16406 5.68209L1.36847 5.19496L3.50435 5.20697L2.00627 3.67604Z" fill="#6720FF"/>
  </svg>
</svg>
