<svg width="430" height="374" viewBox="0 0 430 374" fill="none" xmlns="http://www.w3.org/2000/svg">
  <g>
    <g filter="url(#filter0_d_52_76336)">
      <rect width="198" height="318" transform="translate(216 26)" fill="var(--vscode-editor-background, #1E1E1E)" />
      <g>
        <rect width="198" height="35" transform="translate(216 26)" fill="var(--vscode-tab-inactiveBackground, #252526)" />
        <g clip-path="url(#clip0_52_76336)">
          <g>
            <rect width="103" height="35" transform="translate(216 26)" fill="var(--vscode-editor-background, #1E1E1E)" />
            <rect x="228" y="40" width="79" height="7" rx="3.5" fill="var(--vscode-symbolIcon-textForeground, #FFFFFF)" fill-opacity="0.12" />
          </g>
        </g>
      </g>
      <rect x="259" y="79" width="55" height="7" rx="3.5" fill="var(--vscode-symbolIcon-textForeground, #FFFFFF)" fill-opacity="0.16" />
      <rect x="259" y="98" width="55" height="7" rx="3.5" fill="var(--vscode-symbolIcon-textForeground, #FFFFFF)" fill-opacity="0.16" />
      <rect x="259" y="155" width="72" height="7" rx="3.5" fill="var(--vscode-symbolIcon-textForeground, #FFFFFF)" fill-opacity="0.16" />
      <rect x="337" y="155" width="26" height="7" rx="3.5" fill="var(--vscode-symbolIcon-textForeground, #FFFFFF)" fill-opacity="0.16" />
      <g>
        <rect x="259" y="275" width="72" height="7" rx="3.5" fill="var(--vscode-symbolIcon-textForeground, #FFFFFF)" fill-opacity="0.16" />
        <rect x="337" y="275" width="26" height="7" rx="3.5" fill="var(--vscode-symbolIcon-textForeground, #FFFFFF)" fill-opacity="0.16" />
      </g>
      <rect x="276" y="174" width="30" height="7" rx="3.5" fill="var(--vscode-symbolIcon-textForeground, #FFFFFF)" fill-opacity="0.16" />
      <rect x="286" y="193" width="30" height="7" rx="3.5" fill="var(--vscode-symbolIcon-textForeground, #FFFFFF)" fill-opacity="0.16" />
      <rect x="322" y="193" width="41" height="7" rx="3.5" fill="var(--vscode-symbolIcon-textForeground, #FFFFFF)" fill-opacity="0.16" />
      <rect x="276" y="212" width="30" height="7" rx="3.5" fill="var(--vscode-symbolIcon-textForeground, #FFFFFF)" fill-opacity="0.16" />
      <rect x="267" y="231" width="31" height="7" rx="3.5" fill="var(--vscode-symbolIcon-textForeground, #FFFFFF)" fill-opacity="0.16" />
      <rect x="320" y="79" width="52" height="7" rx="3.5" fill="var(--vscode-symbolIcon-textForeground, #FFFFFF)" fill-opacity="0.16" />
      <rect x="320" y="98" width="74" height="7" rx="3.5" fill="var(--vscode-symbolIcon-textForeground, #FFFFFF)" fill-opacity="0.16" />
      <rect x="313" y="174" width="59" height="7" rx="3.5" fill="var(--vscode-symbolIcon-textForeground, #FFFFFF)" fill-opacity="0.16" />
    </g>
    <g filter="url(#filter1_d_52_76336)">
      <g>
        <rect width="210.268" height="342" transform="translate(18 14)" fill="var(--vscode-sideBar-background, #292929)" />
        <g>
          <g>
            <path d="M38.8806 41.7485H35.8019V39.7509H38.716V38.9233H35.8019V37.0459H38.8806V36.1872H34.8053V42.6071H38.8806V41.7485ZM39.9128 42.6071H41.0161L42.6133 40.1913H42.689L44.2639 42.6071H45.4296L43.2896 39.4083L45.4696 36.1872H44.3485L42.7602 38.6386H42.6845L41.1229 36.1872H39.935L42.0572 39.3771L39.9128 42.6071ZM46.6753 36.1872V42.6071H47.6719V40.4138H49.1579C50.4169 40.4138 51.3067 39.5507 51.3067 38.3138C51.3067 37.0503 50.4436 36.1872 49.189 36.1872H46.6753ZM47.6719 37.0281H48.9265C49.803 37.0281 50.2879 37.4819 50.2879 38.3138C50.2879 39.1191 49.7852 39.5774 48.9265 39.5774H47.6719V37.0281ZM56.5967 41.7396H53.5891V36.1872H52.5925V42.6071H56.5967V41.7396ZM60.3561 36.0315C58.5142 36.0315 57.3574 37.3261 57.3574 39.3949C57.3574 41.4593 58.4875 42.7629 60.3561 42.7629C62.2113 42.7629 63.3503 41.4548 63.3503 39.3949C63.3503 37.3306 62.2024 36.0315 60.3561 36.0315ZM60.3561 36.9124C61.5707 36.9124 62.3315 37.8734 62.3315 39.3949C62.3315 40.9032 61.5751 41.882 60.3561 41.882C59.1193 41.882 58.3763 40.9032 58.3763 39.3949C58.3763 37.8734 59.1415 36.9124 60.3561 36.9124ZM65.6994 40.1379H67.1053L68.4133 42.6071H69.5656L68.1241 39.9822C68.9071 39.7197 69.3698 39.0168 69.3698 38.1492C69.3698 36.9524 68.5379 36.1872 67.2432 36.1872H64.7028V42.6071H65.6994V40.1379ZM65.6994 37.0236H67.1053C67.875 37.0236 68.3466 37.4552 68.3466 38.1715C68.3466 38.9055 67.9017 39.3193 67.132 39.3193H65.6994V37.0236ZM74.8644 41.7485H71.7857V39.7509H74.6998V38.9233H71.7857V37.0459H74.8644V36.1872H70.7891V42.6071H74.8644V41.7485ZM77.3025 40.1379H78.7084L80.0164 42.6071H81.1687L79.7272 39.9822C80.5102 39.7197 80.9729 39.0168 80.9729 38.1492C80.9729 36.9524 80.141 36.1872 78.8463 36.1872H76.3059V42.6071H77.3025V40.1379ZM77.3025 37.0236H78.7084C79.478 37.0236 79.9496 37.4552 79.9496 38.1715C79.9496 38.9055 79.5047 39.3193 78.7351 39.3193H77.3025V37.0236ZM83.0239 39.3327C83.4021 39.3327 83.6779 39.0524 83.6779 38.692C83.6779 38.3316 83.4021 38.0513 83.0239 38.0513C82.6502 38.0513 82.3699 38.3316 82.3699 38.692C82.3699 39.0524 82.6502 39.3327 83.0239 39.3327ZM83.0239 42.6739C83.4021 42.6739 83.6779 42.3936 83.6779 42.0332C83.6779 41.6728 83.4021 41.3926 83.0239 41.3926C82.6502 41.3926 82.3699 41.6728 82.3699 42.0332C82.3699 42.3936 82.6502 42.6739 83.0239 42.6739ZM94.2533 42.6071V36.1872H93.0876L91.0411 41.2101H90.9655L88.9233 36.1872H87.7577V42.6071H88.6831V37.9045H88.7454L90.6273 42.4915H91.3837L93.2656 37.9045H93.3279V42.6071H94.2533ZM98.6311 42.6071V39.9778L100.896 36.1872H99.7879L98.1729 38.9856H98.0973L96.4823 36.1872H95.3745L97.6346 39.9778V42.6071H98.6311ZM104.179 40.4627V39.5774H101.261V40.4627H104.179ZM109.674 42.6071H110.733L108.415 36.1872H107.342L105.024 42.6071H106.048L106.639 40.872H109.086L109.674 42.6071ZM107.827 37.3217H107.903L108.833 40.0712H106.893L107.827 37.3217ZM111.854 36.1872V42.6071H112.85V40.4138H114.336C115.595 40.4138 116.485 39.5507 116.485 38.3138C116.485 37.0503 115.622 36.1872 114.367 36.1872H111.854ZM112.85 37.0281H114.105C114.981 37.0281 115.466 37.4819 115.466 38.3138C115.466 39.1191 114.964 39.5774 114.105 39.5774H112.85V37.0281ZM117.771 36.1872V42.6071H118.767V40.4138H120.253C121.513 40.4138 122.402 39.5507 122.402 38.3138C122.402 37.0503 121.539 36.1872 120.285 36.1872H117.771ZM118.767 37.0281H120.022C120.899 37.0281 121.384 37.4819 121.384 38.3138C121.384 39.1191 120.881 39.5774 120.022 39.5774H118.767V37.0281Z" fill="var(--vscode-symbolIcon-textForeground, #CCCCCC)" />
          </g>
        </g>
        <g>
          <path d="M42.08 65.0358L37.7067 60.7158L38.3467 60.0758L42.9867 64.7691V65.3558L38.3467 70.0491L37.7067 69.4091L42.08 65.0358Z" fill="var(--vscode-symbolIcon-textForeground, #808080)" />
          <rect x="56" y="61.5358" width="93" height="7" rx="3.5" fill="var(--vscode-symbolIcon-textForeground, #FFFFFF)" fill-opacity="0.16" />
        </g>
        <g>
          <path d="M42.08 89.0358L37.7067 84.7158L38.3467 84.0758L42.9867 88.7691V89.3558L38.3467 94.0491L37.7067 93.4091L42.08 89.0358Z" fill="var(--vscode-symbolIcon-textForeground, #808080)" />
          <rect x="56" y="85.5358" width="93" height="7" rx="3.5" fill="var(--vscode-symbolIcon-textForeground, #FFFFFF)" fill-opacity="0.16" />
        </g>
        <g>
          <rect x="17" y="100.036" width="212.268" height="26" fill="var(--vscode-peekViewEditor-background, #062F4A)" />
          <path d="M40.68 115.096C40.5733 115.096 40.4333 115.109 40.26 115.136C40.14 115.149 40.0533 115.156 40 115.156H38.88C38.96 114.262 39.0733 112.929 39.22 111.156C39.3667 109.382 39.48 108.049 39.56 107.156H40.3C40.8733 107.129 41.2933 107.129 41.56 107.156C41.6533 107.156 41.7467 107.216 41.84 107.336C41.9333 107.456 41.9667 107.562 41.94 107.656C41.8467 108.322 41.68 109.329 41.44 110.676L41.18 112.036C41.1133 112.596 40.98 113.456 40.78 114.616L40.68 115.096ZM40.94 117.596C40.9667 117.942 40.8533 118.256 40.6 118.536C40.3467 118.802 40.02 118.949 39.62 118.976C39.22 119.002 38.8533 118.909 38.52 118.696C38.2 118.469 38.0267 118.189 38 117.856C37.9733 117.469 38.0867 117.149 38.34 116.896C38.5933 116.642 38.94 116.502 39.38 116.476C39.82 116.449 40.18 116.536 40.46 116.736C40.7533 116.936 40.9133 117.222 40.94 117.596Z" fill="var(--vscode-charts-purple, #B180D7)" />
          <path d="M58.9009 117.15C59.8086 117.15 60.564 116.756 60.9766 116.058H61.0845V117.036H62.3984V112.319C62.3984 110.872 61.4209 110.009 59.688 110.009C58.1201 110.009 57.0029 110.764 56.8633 111.926H58.1836C58.3359 111.424 58.8628 111.139 59.6245 111.139C60.5576 111.139 61.04 111.564 61.04 112.319V112.922L59.1675 113.037C57.5234 113.138 56.5967 113.856 56.5967 115.093C56.5967 116.35 57.5679 117.15 58.9009 117.15ZM59.25 116.052C58.5073 116.052 57.9678 115.677 57.9678 115.036C57.9678 114.408 58.3994 114.071 59.3516 114.008L61.04 113.894V114.49C61.04 115.379 60.2783 116.052 59.25 116.052ZM64.1821 117.036H69.6538V115.938H65.896V115.83L69.6157 111.088V110.142H64.2075V111.24H67.9844V111.342L64.1821 116.141V117.036ZM77.3027 110.142H75.938V114.186C75.938 115.297 75.335 115.969 74.2305 115.969C73.2275 115.969 72.7769 115.423 72.7769 114.281V110.142H71.4121V114.617C71.4121 116.236 72.2627 117.169 73.7925 117.169C74.8398 117.169 75.5444 116.725 75.8809 115.944H75.9888V117.036H77.3027V110.142ZM79.2832 117.036H80.6479V112.916C80.6479 111.945 81.3779 111.278 82.4126 111.278C82.6538 111.278 83.0601 111.323 83.1743 111.355V110.072C83.0283 110.041 82.7681 110.022 82.5649 110.022C81.6636 110.022 80.8955 110.51 80.6987 111.19H80.5972V110.142H79.2832V117.036ZM88.8428 115.189C88.5889 115.747 88.0239 116.052 87.1987 116.052C86.1069 116.052 85.4023 115.265 85.3579 114.014V113.951H90.2393V113.481C90.2393 111.323 89.0776 110.009 87.1543 110.009C85.2056 110.009 83.9678 111.412 83.9678 113.602C83.9678 115.804 85.1802 117.169 87.1606 117.169C88.7412 117.169 89.8584 116.407 90.1567 115.189H88.8428ZM87.1479 111.12C88.1572 111.12 88.8174 111.85 88.8491 112.967H85.3579C85.4341 111.856 86.1387 111.12 87.1479 111.12ZM92.937 117.131C93.4766 117.131 93.8701 116.731 93.8701 116.217C93.8701 115.703 93.4766 115.303 92.937 115.303C92.4038 115.303 92.0039 115.703 92.0039 116.217C92.0039 116.731 92.4038 117.131 92.937 117.131ZM95.7363 119.537C97.1455 119.537 97.7993 119.01 98.3896 117.353L100.967 110.142H99.5195L97.793 115.665H97.6851L95.9521 110.142H94.4668L96.9678 117.055L96.8662 117.41C96.6313 118.14 96.2632 118.413 95.6157 118.413C95.4888 118.413 95.2793 118.407 95.1714 118.388V119.505C95.2983 119.524 95.6221 119.537 95.7363 119.537ZM104.033 117.15C104.94 117.15 105.696 116.756 106.108 116.058H106.216V117.036H107.53V112.319C107.53 110.872 106.553 110.009 104.82 110.009C103.252 110.009 102.135 110.764 101.995 111.926H103.315C103.468 111.424 103.995 111.139 104.756 111.139C105.689 111.139 106.172 111.564 106.172 112.319V112.922L104.299 113.037C102.655 113.138 101.729 113.856 101.729 115.093C101.729 116.35 102.7 117.15 104.033 117.15ZM104.382 116.052C103.639 116.052 103.1 115.677 103.1 115.036C103.1 114.408 103.531 114.071 104.483 114.008L106.172 113.894V114.49C106.172 115.379 105.41 116.052 104.382 116.052ZM109.473 117.036H110.837V112.802C110.837 111.901 111.466 111.196 112.297 111.196C113.11 111.196 113.63 111.685 113.63 112.472V117.036H114.97V112.675C114.97 111.843 115.547 111.196 116.43 111.196C117.325 111.196 117.769 111.659 117.769 112.611V117.036H119.134V112.281C119.134 110.847 118.321 110.009 116.925 110.009C115.966 110.009 115.173 110.498 114.824 111.24H114.716C114.411 110.498 113.757 110.009 112.812 110.009C111.891 110.009 111.193 110.466 110.888 111.24H110.787V110.142H109.473V117.036ZM121.114 117.036H122.479V107.438H121.114V117.036Z" fill="var(--vscode-symbolIcon-textForeground, #FFFFFF)" />
          <rect x="17" y="100.036" width="212.268" height="26" stroke="var(--vscode-focusBorder, #3794FF)" stroke-width="2" stroke-dasharray="6 4" />
        </g>
        <g>
          <path d="M41.68 135.036C41.6267 134.356 41.3533 133.802 40.86 133.376C40.38 132.936 39.78 132.696 39.06 132.656H38.12C38.08 132.162 38.1733 131.736 38.4 131.376C38.6667 130.909 39.0933 130.649 39.68 130.596C40.28 130.529 40.78 130.696 41.18 131.096C41.5133 131.482 41.68 131.982 41.68 132.596C41.68 132.716 41.7067 132.802 41.76 132.856L42.32 133.416C42.4933 132.882 42.5133 132.316 42.38 131.716C42.22 131.169 41.92 130.729 41.48 130.396C41.0533 130.062 40.54 129.882 39.94 129.856C39.5533 129.856 39.2267 129.896 38.96 129.976C38.64 130.069 38.36 130.236 38.12 130.476C37.8267 130.756 37.6067 131.122 37.46 131.576C37.3267 132.029 37.3133 132.489 37.42 132.956C37.54 133.462 37.7933 133.902 38.18 134.276C38.3133 134.409 38.5467 134.556 38.88 134.716C39.0267 134.782 39.1533 134.776 39.26 134.696C39.38 134.602 39.44 134.489 39.44 134.356C39.44 134.076 39.2933 133.909 39 133.856C38.96 133.856 38.9 133.809 38.82 133.716V133.656C38.94 133.629 39.0667 133.636 39.2 133.676C39.3467 133.702 39.4667 133.762 39.56 133.856C39.7467 134.042 39.8067 134.289 39.74 134.596C39.6867 134.822 39.5667 134.982 39.38 135.076C39.2067 135.156 38.9933 135.162 38.74 135.096C38.1133 134.922 37.64 134.509 37.32 133.856C37.2933 133.789 37.2467 133.696 37.18 133.576C37.1267 133.442 37.0867 133.342 37.06 133.276C36.8067 133.542 36.6133 133.769 36.48 133.956C36.3067 134.222 36.1867 134.496 36.12 134.776C35.88 135.896 36.1733 136.836 37 137.596C37.04 137.636 37.0667 137.676 37.08 137.716C37.0933 137.742 37.0867 137.789 37.06 137.856C36.9933 138.429 36.9133 138.902 36.82 139.276C36.7533 139.636 36.6667 140.162 36.56 140.856C36.4533 141.536 36.3667 142.049 36.3 142.396C36.2467 142.742 36.2533 143.082 36.32 143.416C36.3867 143.682 36.5533 143.869 36.82 143.976C36.8333 143.896 36.8467 143.776 36.86 143.616C36.8867 143.442 36.9133 143.309 36.94 143.216C37.0067 142.869 37.0867 142.356 37.18 141.676C37.2867 140.982 37.3733 140.456 37.44 140.096C37.48 139.882 37.5267 139.562 37.58 139.136C37.6467 138.696 37.7067 138.369 37.76 138.156C37.76 138.036 37.82 137.976 37.94 137.976C37.9933 137.976 38.0267 137.996 38.04 138.036C38.0533 138.076 38.06 138.136 38.06 138.216C38.0067 138.709 37.9067 139.316 37.76 140.036C37.6933 140.476 37.5933 141.102 37.46 141.916C37.3 142.849 37.1867 143.536 37.12 143.976C37.12 144.002 37.1333 144.029 37.16 144.056L37.18 144.096C37.2867 144.096 37.4333 144.109 37.62 144.136C37.8067 144.149 37.9533 144.156 38.06 144.156C38.3133 144.156 38.5667 143.989 38.82 143.656C38.9933 143.482 39.0133 143.256 38.88 142.976C38.8 142.896 38.76 142.829 38.76 142.776C38.5733 142.536 38.6133 142.349 38.88 142.216C38.8933 142.202 38.9333 142.189 39 142.176C39.0667 142.149 39.1067 142.122 39.12 142.096C39.1867 142.069 39.2267 142.016 39.24 141.936C39.2667 141.856 39.2467 141.782 39.18 141.716L39 141.536C38.8667 141.376 38.7667 141.269 38.7 141.216C38.6333 141.162 38.6067 141.089 38.62 140.996C38.6467 140.889 38.6867 140.816 38.74 140.776C38.8067 140.736 38.9133 140.689 39.06 140.636C39.2067 140.569 39.3133 140.516 39.38 140.476C39.4467 140.436 39.4867 140.389 39.5 140.336C39.5133 140.282 39.4933 140.222 39.44 140.156C39.36 140.076 39.2933 139.996 39.24 139.916C39.16 139.822 39.1267 139.709 39.14 139.576C39.1533 139.442 39.2067 139.342 39.3 139.276C39.3933 139.196 39.48 139.156 39.56 139.156C39.68 139.102 39.7467 139.022 39.76 138.916C39.7467 138.849 39.7533 138.756 39.78 138.636C39.8067 138.502 39.82 138.409 39.82 138.356C39.82 138.316 39.8333 138.269 39.86 138.216C39.8867 138.162 39.9133 138.122 39.94 138.096C40.06 137.976 40.2867 137.829 40.62 137.656C41.0467 137.349 41.3467 136.976 41.52 136.536C41.6933 136.082 41.7467 135.582 41.68 135.036ZM43.94 142.156C43.94 141.996 43.8533 141.916 43.68 141.916C43.5867 141.916 43.52 141.909 43.48 141.896C43.4 141.869 43.3467 141.809 43.32 141.716C43.2533 141.529 43.2533 141.342 43.32 141.156C43.4533 140.889 43.3667 140.722 43.06 140.656C43.02 140.656 42.9533 140.649 42.86 140.636C42.7667 140.609 42.6867 140.596 42.62 140.596C42.5 140.596 42.44 140.536 42.44 140.416C42.44 140.376 42.4267 140.316 42.4 140.236C42.3867 140.142 42.38 140.076 42.38 140.036C42.38 139.956 42.4067 139.876 42.46 139.796C42.4867 139.742 42.5333 139.676 42.6 139.596C42.68 139.502 42.7133 139.436 42.7 139.396C42.7 139.342 42.6533 139.282 42.56 139.216C42.5467 139.202 42.5067 139.176 42.44 139.136C42.3733 139.096 42.3333 139.062 42.32 139.036C42.2 138.969 42.1267 138.902 42.1 138.836C42.0867 138.769 42.1133 138.669 42.18 138.536C42.2733 138.456 42.32 138.396 42.32 138.356C42.4267 138.236 42.4467 138.109 42.38 137.976L42.32 137.876C42.2533 137.716 42.1867 137.602 42.12 137.536C42.0667 137.416 42.0667 137.289 42.12 137.156C42.6533 136.102 42.72 135.082 42.32 134.096C42 133.416 41.4533 132.982 40.68 132.796L40.62 132.856C40.6467 132.869 40.68 132.909 40.72 132.976C40.76 133.042 40.7933 133.082 40.82 133.096C41.6067 133.762 42 134.576 42 135.536C42 136.616 41.54 137.489 40.62 138.156C40.5533 138.196 40.5067 138.242 40.48 138.296C40.4667 138.349 40.4733 138.409 40.5 138.476C40.58 138.676 40.6933 138.976 40.84 139.376C40.9867 139.776 41.1 140.076 41.18 140.276L42.68 143.776L42.72 143.836C42.76 143.889 42.8133 143.916 42.88 143.916C43.2533 143.729 43.54 143.476 43.74 143.156C43.94 142.836 44.0067 142.502 43.94 142.156ZM40.18 138.476C40.1667 138.556 40.1467 138.662 40.12 138.796C40.1067 138.929 40.0867 139.029 40.06 139.096L40.04 139.216C40.0267 139.336 40.0333 139.422 40.06 139.476L41.38 142.716C41.5267 143.089 41.7333 143.382 42 143.596C42.16 143.676 42.2667 143.742 42.32 143.796L42.38 143.716C41.9133 142.556 41.18 140.809 40.18 138.476Z" fill="var(--vscode-terminal-ansiYellow, #CBCB41)" />
          <rect x="56" y="133.536" width="63" height="7" rx="3.5" fill="var(--vscode-symbolIcon-textForeground, #FFFFFF)" fill-opacity="0.16" />
        </g>
        <g>
          <path d="M33.0133 165.036V164.022H42.0267V165.036H33.0133ZM33.0133 160.022H46.9867V161.036H33.0133V160.022ZM44 156.022V157.036H33.0133V156.022H44Z" fill="var(--vscode-symbolIcon-textForeground, #FFFFFF)" />
          <rect x="56" y="157.536" width="47" height="7" rx="3.5" fill="var(--vscode-symbolIcon-textForeground, #FFFFFF)" fill-opacity="0.16" />
        </g>
        <g>
          <path d="M40.68 187.096C40.5733 187.096 40.4333 187.109 40.26 187.136C40.14 187.149 40.0533 187.156 40 187.156H38.88C38.96 186.262 39.0733 184.929 39.22 183.156C39.3667 181.382 39.48 180.049 39.56 179.156H40.3C40.8733 179.129 41.2933 179.129 41.56 179.156C41.6533 179.156 41.7467 179.216 41.84 179.336C41.9333 179.456 41.9667 179.562 41.94 179.656C41.8467 180.322 41.68 181.329 41.44 182.676L41.18 184.036C41.1133 184.596 40.98 185.456 40.78 186.616L40.68 187.096ZM40.94 189.596C40.9667 189.942 40.8533 190.256 40.6 190.536C40.3467 190.802 40.02 190.949 39.62 190.976C39.22 191.002 38.8533 190.909 38.52 190.696C38.2 190.469 38.0267 190.189 38 189.856C37.9733 189.469 38.0867 189.149 38.34 188.896C38.5933 188.642 38.94 188.502 39.38 188.476C39.82 188.449 40.18 188.536 40.46 188.736C40.7533 188.936 40.9133 189.222 40.94 189.596Z" fill="var(--vscode-charts-purple, #B180D7)" />
          <rect x="56" y="181.536" width="58" height="7" rx="3.5" fill="var(--vscode-symbolIcon-textForeground, #FFFFFF)" fill-opacity="0.16" />
        </g>
        <g>
          <path d="M46.26 208.476C46.1933 207.502 45.86 206.542 45.26 205.596C44.82 204.942 44.2933 204.402 43.68 203.976C43.0667 203.536 42.38 203.222 41.62 203.036C41.18 202.916 40.7667 202.856 40.38 202.856H39.38C38.18 202.976 37.0733 203.409 36.06 204.156C34.9 205.129 34.1733 206.296 33.88 207.656C33.8 208.069 33.76 208.402 33.76 208.656V209.656C33.8933 210.816 34.2467 211.796 34.82 212.596C35.5533 213.676 36.4667 214.429 37.56 214.856C38.32 215.122 39.0067 215.289 39.62 215.356H40.62C42.14 215.222 43.4333 214.596 44.5 213.476C45.3667 212.609 45.9267 211.569 46.18 210.356C46.2067 210.249 46.2267 210.102 46.24 209.916C46.2667 209.729 46.2933 209.582 46.32 209.476V208.796C46.2667 208.702 46.24 208.596 46.24 208.476H46.26ZM40 214.356C39.04 214.356 38.1533 214.109 37.34 213.616C36.54 213.149 35.9067 212.509 35.44 211.696C34.9867 210.882 34.76 209.996 34.76 209.036C34.76 208.076 34.9933 207.189 35.46 206.376C35.94 205.562 36.5867 204.922 37.4 204.456C38.24 203.962 39.1467 203.716 40.12 203.716C41.0667 203.742 41.94 203.996 42.74 204.476C43.5533 204.942 44.1933 205.576 44.66 206.376C45.14 207.189 45.3733 208.076 45.36 209.036C45.3467 209.996 45.0933 210.882 44.6 211.696C44.12 212.509 43.48 213.149 42.68 213.616C41.8533 214.109 40.96 214.356 40 214.356ZM41.5 212.416C41.38 212.416 41.2733 212.396 41.18 212.356C41.1267 212.356 41.08 212.316 41.04 212.236C41.0267 212.196 41.0133 212.169 41 212.156V208.096C40.6667 208.122 40.1733 208.149 39.52 208.176C38.88 208.189 38.3933 208.202 38.06 208.216V208.716H38.68C38.8 208.716 38.8933 208.756 38.96 208.836C39.0267 208.916 39.06 209.022 39.06 209.156V212.036C39.06 212.289 38.9333 212.416 38.68 212.416H38.12V212.916H41.88V212.416H41.5ZM39.88 207.356C40.1867 207.356 40.44 207.249 40.64 207.036C40.84 206.822 40.94 206.576 40.94 206.296C40.94 206.002 40.8333 205.749 40.62 205.536C40.4067 205.322 40.1533 205.216 39.86 205.216C39.5667 205.216 39.32 205.322 39.12 205.536C38.92 205.749 38.82 206.002 38.82 206.296C38.82 206.576 38.9267 206.822 39.14 207.036C39.3533 207.249 39.6 207.356 39.88 207.356Z" fill="var(--vscode-tab-activeModifiedBorder, #519ABA)" />
          <rect x="56" y="205.536" width="71" height="7" rx="3.5" fill="var(--vscode-symbolIcon-textForeground, #FFFFFF)" fill-opacity="0.16" />
        </g>
        <g>
          <path d="M34.38 233.156V232.976C34.3933 232.869 34.4267 232.776 34.48 232.696C34.52 232.642 34.58 232.569 34.66 232.476L34.82 232.296L37.94 229.156L37.96 229.176C37.9867 229.176 38 229.189 38 229.216L39.12 230.356C39.1867 230.409 39.1867 230.469 39.12 230.536C39.0933 230.722 39.1133 230.902 39.18 231.076C39.2467 231.249 39.3533 231.382 39.5 231.476C39.5533 231.502 39.5867 231.536 39.6 231.576C39.6133 231.602 39.62 231.649 39.62 231.716V234.476C39.62 234.556 39.58 234.636 39.5 234.716C39.34 234.822 39.22 234.962 39.14 235.136C39.0733 235.309 39.0667 235.489 39.12 235.676C39.1867 235.849 39.2933 235.996 39.44 236.116C39.5867 236.236 39.7533 236.296 39.94 236.296C40.1267 236.296 40.2933 236.242 40.44 236.136C40.5867 236.029 40.6867 235.889 40.74 235.716C40.8067 235.529 40.8133 235.349 40.76 235.176C40.7067 235.002 40.6 234.849 40.44 234.716C40.3867 234.689 40.3533 234.662 40.34 234.636C40.3267 234.596 40.32 234.542 40.32 234.476V231.656H40.38L41.38 232.656C41.4067 232.682 41.42 232.716 41.42 232.756L41.44 232.796V233.156C41.4667 233.409 41.5733 233.609 41.76 233.756C41.96 233.889 42.1867 233.942 42.44 233.916C42.6933 233.876 42.8933 233.749 43.04 233.536C43.2 233.322 43.2467 233.096 43.18 232.856C43.1533 232.642 43.0333 232.469 42.82 232.336C42.62 232.189 42.4067 232.129 42.18 232.156C42.1 232.156 42.02 232.136 41.94 232.096L40.88 231.036C40.84 230.996 40.82 230.936 40.82 230.856C40.86 230.669 40.8333 230.489 40.74 230.316C40.6467 230.142 40.5133 230.016 40.34 229.936C40.1667 229.842 39.9933 229.816 39.82 229.856C39.6867 229.856 39.62 229.836 39.62 229.796C39.1267 229.289 38.7533 228.929 38.5 228.716C38.4333 228.662 38.4333 228.602 38.5 228.536C38.6467 228.429 38.8333 228.242 39.06 227.976L39.32 227.716C39.6933 227.342 40.0667 227.342 40.44 227.716L45.18 232.476C45.5667 232.849 45.5667 233.222 45.18 233.596L40.54 238.256C40.42 238.376 40.3333 238.456 40.28 238.496C40.1733 238.589 40.06 238.642 39.94 238.656H39.82L39.72 238.616C39.56 238.549 39.4467 238.482 39.38 238.416L39 238.036C38.6267 237.689 38.3533 237.416 38.18 237.216L34.76 233.796C34.7333 233.729 34.6733 233.642 34.58 233.536C34.46 233.376 34.3933 233.249 34.38 233.156Z" fill="var(--vscode-editorOverviewRuler-bracketMatchForeground, #A0A0A0)" />
          <rect x="56" y="229.536" width="47" height="7" rx="3.5" fill="var(--vscode-symbolIcon-textForeground, #FFFFFF)" fill-opacity="0.16" />
        </g>
        <g>
          <path d="M34.38 257.156V256.976C34.3933 256.869 34.4267 256.776 34.48 256.696C34.52 256.642 34.58 256.569 34.66 256.476L34.82 256.296L37.94 253.156L37.96 253.176C37.9867 253.176 38 253.189 38 253.216L39.12 254.356C39.1867 254.409 39.1867 254.469 39.12 254.536C39.0933 254.722 39.1133 254.902 39.18 255.076C39.2467 255.249 39.3533 255.382 39.5 255.476C39.5533 255.502 39.5867 255.536 39.6 255.576C39.6133 255.602 39.62 255.649 39.62 255.716V258.476C39.62 258.556 39.58 258.636 39.5 258.716C39.34 258.822 39.22 258.962 39.14 259.136C39.0733 259.309 39.0667 259.489 39.12 259.676C39.1867 259.849 39.2933 259.996 39.44 260.116C39.5867 260.236 39.7533 260.296 39.94 260.296C40.1267 260.296 40.2933 260.242 40.44 260.136C40.5867 260.029 40.6867 259.889 40.74 259.716C40.8067 259.529 40.8133 259.349 40.76 259.176C40.7067 259.002 40.6 258.849 40.44 258.716C40.3867 258.689 40.3533 258.662 40.34 258.636C40.3267 258.596 40.32 258.542 40.32 258.476V255.656H40.38L41.38 256.656C41.4067 256.682 41.42 256.716 41.42 256.756L41.44 256.796V257.156C41.4667 257.409 41.5733 257.609 41.76 257.756C41.96 257.889 42.1867 257.942 42.44 257.916C42.6933 257.876 42.8933 257.749 43.04 257.536C43.2 257.322 43.2467 257.096 43.18 256.856C43.1533 256.642 43.0333 256.469 42.82 256.336C42.62 256.189 42.4067 256.129 42.18 256.156C42.1 256.156 42.02 256.136 41.94 256.096L40.88 255.036C40.84 254.996 40.82 254.936 40.82 254.856C40.86 254.669 40.8333 254.489 40.74 254.316C40.6467 254.142 40.5133 254.016 40.34 253.936C40.1667 253.842 39.9933 253.816 39.82 253.856C39.6867 253.856 39.62 253.836 39.62 253.796C39.1267 253.289 38.7533 252.929 38.5 252.716C38.4333 252.662 38.4333 252.602 38.5 252.536C38.6467 252.429 38.8333 252.242 39.06 251.976L39.32 251.716C39.6933 251.342 40.0667 251.342 40.44 251.716L45.18 256.476C45.5667 256.849 45.5667 257.222 45.18 257.596L40.54 262.256C40.42 262.376 40.3333 262.456 40.28 262.496C40.1733 262.589 40.06 262.642 39.94 262.656H39.82L39.72 262.616C39.56 262.549 39.4467 262.482 39.38 262.416L39 262.036C38.6267 261.689 38.3533 261.416 38.18 261.216L34.76 257.796C34.7333 257.729 34.6733 257.642 34.58 257.536C34.46 257.376 34.3933 257.249 34.38 257.156Z" fill="var(--vscode-editorOverviewRuler-bracketMatchForeground, #A0A0A0)" />
          <rect x="56" y="253.536" width="63" height="7" rx="3.5" fill="var(--vscode-symbolIcon-textForeground, #FFFFFF)" fill-opacity="0.16" />
        </g>
      </g>
    </g>
    <g filter="url(#filter2_d_52_76336)">
      <g clip-path="url(#clip1_52_76336)">
        <g>
          <rect width="140" height="31" transform="translate(215 113)" fill="var(--vscode-sideBar-background, #333333)" />
          <rect x="231" y="125" width="63" height="7" rx="3.5" fill="var(--vscode-symbolIcon-textForeground, #FFFFFF)" fill-opacity="0.16" />
        </g>
        <g>
          <rect width="140" height="31" transform="translate(215 144)" fill="var(--vscode-sideBar-background, #333333)" />
          <rect x="231" y="156" width="63" height="7" rx="3.5" fill="var(--vscode-symbolIcon-textForeground, #FFFFFF)" fill-opacity="0.16" />
        </g>
        <g>
          <rect width="140" height="31" transform="translate(215 175)" fill="var(--vscode-sideBar-background, #333333)" />
          <rect x="231" y="187" width="93" height="7" rx="3.5" fill="var(--vscode-symbolIcon-textForeground, #FFFFFF)" fill-opacity="0.16" />
        </g>
        <g>
          <rect width="140" height="32" transform="translate(215 206)" fill="var(--vscode-banner-iconForeground, #3794FF)" />
          <path d="M246.957 218.395H244.857V224.615C244.857 226.324 243.93 227.359 242.23 227.359C240.688 227.359 239.994 226.52 239.994 224.762V218.395H237.895V225.279C237.895 227.77 239.203 229.205 241.557 229.205C243.168 229.205 244.252 228.521 244.77 227.32H244.936V229H246.957V218.395ZM255.521 218.209C254.076 218.209 252.826 218.941 252.182 220.152H252.025V218.395H250.004V232.535H252.104V227.398H252.27C252.826 228.521 254.027 229.176 255.541 229.176C258.227 229.176 259.936 227.047 259.936 223.697C259.936 220.328 258.227 218.209 255.521 218.209ZM254.926 227.379C253.168 227.379 252.064 225.963 252.064 223.697C252.064 221.422 253.168 220.006 254.936 220.006C256.713 220.006 257.777 221.393 257.777 223.697C257.777 226.002 256.713 227.379 254.926 227.379Z" fill="#FFFFFF" />
        </g>
        <g>
          <rect width="140" height="31" transform="translate(215 238)" fill="var(--vscode-sideBar-background, #333333)" />
          <rect x="231" y="250" width="47" height="7" rx="3.5" fill="var(--vscode-symbolIcon-textForeground, #FFFFFF)" fill-opacity="0.16" />
        </g>
      </g>
    </g>
    <g filter="url(#filter3_d_52_76336)">
      <g>
        <rect x="104" y="140" width="91" height="27" rx="13.5" fill="var(--vscode-banner-iconForeground, #3794FF)" />
        <path d="M116.769 154.206H118.929L120.938 158H122.709L120.494 153.967C121.697 153.563 122.408 152.483 122.408 151.15C122.408 149.312 121.13 148.136 119.141 148.136H115.237V158H116.769V154.206ZM116.769 149.421H118.929C120.111 149.421 120.836 150.084 120.836 151.185C120.836 152.312 120.152 152.948 118.97 152.948H116.769V149.421ZM125.177 149.25C125.689 149.25 126.106 148.833 126.106 148.327C126.106 147.814 125.689 147.397 125.177 147.397C124.664 147.397 124.247 147.814 124.247 148.327C124.247 148.833 124.664 149.25 125.177 149.25ZM124.445 158H125.908V150.576H124.445V158ZM131.206 160.837C133.312 160.837 134.645 159.764 134.645 158.075V150.576H133.236V151.759H133.12C132.703 150.952 131.808 150.446 130.782 150.446C128.882 150.446 127.692 151.943 127.692 154.192C127.692 156.421 128.868 157.891 130.769 157.891C131.794 157.891 132.614 157.446 133.065 156.64H133.175V158.068C133.175 159.073 132.45 159.675 131.227 159.675C130.235 159.675 129.613 159.319 129.49 158.759H127.986C128.144 160.01 129.347 160.837 131.206 160.837ZM131.186 156.674C129.921 156.674 129.21 155.71 129.21 154.192C129.21 152.675 129.921 151.704 131.186 151.704C132.437 151.704 133.202 152.675 133.202 154.192C133.202 155.71 132.443 156.674 131.186 156.674ZM136.846 158H138.315V153.652C138.315 152.49 138.985 151.718 140.188 151.718C141.228 151.718 141.781 152.326 141.781 153.55V158H143.251V153.201C143.251 151.444 142.273 150.439 140.688 150.439C139.566 150.439 138.78 150.932 138.418 151.759H138.302V147.664H136.846V158ZM145.842 148.703V150.597H144.659V151.772H145.842V156.045C145.842 157.474 146.491 158.048 148.125 158.048C148.412 158.048 148.686 158.014 148.925 157.973V156.804C148.72 156.824 148.59 156.838 148.364 156.838C147.633 156.838 147.312 156.489 147.312 155.689V151.772H148.925V150.597H147.312V148.703H145.842ZM160.785 152.962C160.594 151.52 159.466 150.433 157.6 150.433C155.433 150.433 154.113 151.902 154.113 154.261C154.113 156.667 155.439 158.144 157.606 158.144C159.445 158.144 160.594 157.111 160.785 155.648H159.356C159.165 156.455 158.529 156.893 157.6 156.893C156.376 156.893 155.617 155.901 155.617 154.261C155.617 152.654 156.369 151.684 157.6 151.684C158.584 151.684 159.186 152.237 159.356 152.962H160.785ZM162.535 158H164.005V147.664H162.535V158ZM166.972 149.25C167.484 149.25 167.901 148.833 167.901 148.327C167.901 147.814 167.484 147.397 166.972 147.397C166.459 147.397 166.042 147.814 166.042 148.327C166.042 148.833 166.459 149.25 166.972 149.25ZM166.24 158H167.703V150.576H166.24V158ZM176.166 152.962C175.975 151.52 174.847 150.433 172.98 150.433C170.813 150.433 169.494 151.902 169.494 154.261C169.494 156.667 170.82 158.144 172.987 158.144C174.826 158.144 175.975 157.111 176.166 155.648H174.737C174.546 156.455 173.91 156.893 172.98 156.893C171.757 156.893 170.998 155.901 170.998 154.261C170.998 152.654 171.75 151.684 172.98 151.684C173.965 151.684 174.566 152.237 174.737 152.962H176.166ZM179.502 153.707H179.386V147.664H177.916V158H179.386V155.3L180.035 154.678L182.592 158H184.396L181.129 153.755L184.191 150.576H182.455L179.502 153.707Z" fill="#FFFFFF" />
      </g>
      <path fill-rule="evenodd" clip-rule="evenodd" d="M80 119V143.688L86 137.516L91 147.803C91 147.803 92.3526 148.247 93 147.803C93.6474 147.359 94.2913 146.465 94 145.745C92.6247 142.35 89 135.459 89 135.459H96L80 119Z" fill="#000000" stroke="white" stroke-width="2" />
    </g>
  </g>
  <defs>
    <filter id="filter0_d_52_76336" x="200" y="12" width="230" height="350" filterUnits="userSpaceOnUse" color-interpolation-filters="sRGB">
      <feFlood flood-opacity="0" result="BackgroundImageFix" />
      <feColorMatrix in="SourceAlpha" type="matrix" values="0 0 0 0 0 0 0 0 0 0 0 0 0 0 0 0 0 0 127 0" result="hardAlpha" />
      <feOffset dy="2" />
      <feGaussianBlur stdDeviation="8" />
      <feColorMatrix type="matrix" values="0 0 0 0 0 0 0 0 0 0 0 0 0 0 0 0 0 0 0.36 0" />
      <feBlend mode="normal" in2="BackgroundImageFix" result="effect1_dropShadow_52_76336" />
      <feBlend mode="normal" in="SourceGraphic" in2="effect1_dropShadow_52_76336" result="shape" />
    </filter>
    <filter id="filter1_d_52_76336" x="0" y="0" width="246.268" height="374" filterUnits="userSpaceOnUse" color-interpolation-filters="sRGB">
      <feFlood flood-opacity="0" result="BackgroundImageFix" />
      <feColorMatrix in="SourceAlpha" type="matrix" values="0 0 0 0 0 0 0 0 0 0 0 0 0 0 0 0 0 0 127 0" result="hardAlpha" />
      <feOffset dy="2" />
      <feGaussianBlur stdDeviation="8" />
      <feColorMatrix type="matrix" values="0 0 0 0 0 0 0 0 0 0 0 0 0 0 0 0 0 0 0.36 0" />
      <feBlend mode="normal" in2="BackgroundImageFix" result="effect1_dropShadow_52_76336" />
      <feBlend mode="normal" in="SourceGraphic" in2="effect1_dropShadow_52_76336" result="shape" />
    </filter>
    <filter id="filter2_d_52_76336" x="199" y="99" width="172" height="188" filterUnits="userSpaceOnUse" color-interpolation-filters="sRGB">
      <feFlood flood-opacity="0" result="BackgroundImageFix" />
      <feColorMatrix in="SourceAlpha" type="matrix" values="0 0 0 0 0 0 0 0 0 0 0 0 0 0 0 0 0 0 127 0" result="hardAlpha" />
      <feOffset dy="2" />
      <feGaussianBlur stdDeviation="8" />
      <feComposite in2="hardAlpha" operator="out" />
      <feColorMatrix type="matrix" values="0 0 0 0 0 0 0 0 0 0 0 0 0 0 0 0 0 0 0.36 0" />
      <feBlend mode="normal" in2="BackgroundImageFix" result="effect1_dropShadow_52_76336" />
      <feBlend mode="normal" in="SourceGraphic" in2="effect1_dropShadow_52_76336" result="shape" />
    </filter>
    <filter id="filter3_d_52_76336" x="63" y="102.537" width="158" height="84.4633" filterUnits="userSpaceOnUse" color-interpolation-filters="sRGB">
      <feFlood flood-opacity="0" result="BackgroundImageFix" />
      <feColorMatrix in="SourceAlpha" type="matrix" values="0 0 0 0 0 0 0 0 0 0 0 0 0 0 0 0 0 0 127 0" result="hardAlpha" />
      <feOffset dy="2" />
      <feGaussianBlur stdDeviation="8" />
      <feComposite in2="hardAlpha" operator="out" />
      <feColorMatrix type="matrix" values="0 0 0 0 0 0 0 0 0 0 0 0 0 0 0 0 0 0 0.36 0" />
      <feBlend mode="normal" in2="BackgroundImageFix" result="effect1_dropShadow_52_76336" />
      <feBlend mode="normal" in="SourceGraphic" in2="effect1_dropShadow_52_76336" result="shape" />
    </filter>
    <clipPath id="clip0_52_76336">
      <rect width="103" height="35" fill="var(--vscode-activityBar-activeBorder, #FFFFFF)" transform="translate(216 26)" />
    </clipPath>
    <clipPath id="clip1_52_76336">
      <rect x="215" y="113" width="140" height="156" rx="4" fill="var(--vscode-activityBar-activeBorder, #FFFFFF)" />
    </clipPath>
  </defs>
</svg>